<?xml version="1.0" encoding="utf-8"?>
<!-- Generator: Adobe Illustrator 19.0.0, SVG Export Plug-In . SVG Version: 6.00 Build 0)  -->
<svg xmlns="http://www.w3.org/2000/svg" xmlns:xlink="http://www.w3.org/1999/xlink" version="1.1" id="img_work_1" x="0px" y="0px" viewBox="-304 317.5 90 61" style="enable-background:new -304 317.5 90 61;" xml:space="preserve" class="style-svg replaced-svg svg-replaced-6">
<g>
	<path d="M-222.9,355.5l5.3-2.3l-6-2.6l-1.1-0.5l1.1-0.5l6-2.6l-6-2.6l-1.1-0.5l1.1-0.5l6-2.6l-6-2.6l-0.9-0.4l0.9-0.4l6-2.6l-6-2.6   l-34.3-14.3l-1.1-0.4l-1.1,0.5l-34.4,14.6l-6,2.6l6,2.6l0.9,0.4l-0.9,0.4l-6,2.6l6,2.6l1.1,0.5l-1.1,0.5l-6,2.6l6,2.6l1.1,0.5   l-1.1,0.5l-6,2.6l5.3,2.3l-8.8,3.4l9,3.8l34.4,14.7l1.6,0.7l1.6-0.7l34.4-14.7l9-3.8L-222.9,355.5z M-259,320.5l34.4,14.7   l-34.4,14.7l-34.4-14.7L-259,320.5z M-293.4,341.1l3.4-1.4l29.9,12.8l1.1,0.5l1.1-0.5l29.9-12.9l3.4,1.4l-34.4,14.8L-293.4,341.1z    M-293.4,347.2l3.6-1.5l29.7,12.7l1.1,0.5l1.1-0.5l29.7-12.7l3.6,1.5l-34.4,14.6L-293.4,347.2z M-259,374l-34.4-14.7l3.6-1.5   l29.7,12.7l1.1,0.5l1.1-0.5l29.7-12.7l3.6,1.5L-259,374z M-226.4,354l-5.3,2.3l0,0l-27.3,11.6l-27.3-11.6l-5.3-2.3l-1.8-0.8   l3.6-1.5l29.7,12.7l1.1,0.5l1.1-0.5l29.7-12.7l3.6,1.5L-226.4,354z"></path>
	<polygon points="-249.7,329.5 -272.3,339.2 -269.7,340.3 -247.1,330.6  "></polygon>
	<polygon points="-244.3,331.7 -267,341.5 -264.3,342.6 -241.7,332.9  "></polygon>
	<polygon points="-239,334 -261.6,343.8 -259,344.9 -236.4,335.1  "></polygon>
	<polygon points="-260.4,324.9 -283,334.7 -280.4,335.8 -257.8,326  "></polygon>
	<polygon points="-255,327.2 -277.7,337 -275,338.1 -252.4,328.3  "></polygon>
</g>
</svg>