<?xml version="1.0" encoding="utf-8"?>
<!-- Generator: Adobe Illustrator 19.0.0, SVG Export Plug-In . SVG Version: 6.00 Build 0)  -->
<svg version="1.1" id="Calque_1" xmlns="http://www.w3.org/2000/svg" xmlns:xlink="http://www.w3.org/1999/xlink" x="0px" y="0px"
	 viewBox="-184.3 159.3 316.4 320.4" style="enable-background:new -184.3 159.3 316.4 320.4;" xml:space="preserve">
<g>
	<path d="M-184,289.8l16,91c1,5,3,12,9,17c12,9,58,41,58,59v23h65l-1-86c0-6-1-10-15-16l-64-29c-16-7-27,17-11,24l54,24c3,1,2,6-2,5
		l-60-27c-7-3-6-5-8-11l-17-76C-165,269.8-187,273.8-184,289.8z M-26,178.8c40-44,113-7,113,57c0,43-80,99-113,121
		c-34-22-114-78-114-121C-140,172.8-68,133.8-26,178.8z M-40,212.8h27v32h32v27h-32v32h-27v-32h-32v-27h32V212.8z M-26,342.8
		c29-19,101-72,101-107c0-57-69-91-101-36c-33-56-102-20-102,36C-128,270.8-55,323.8-26,342.8z M132,289.8l-17,91c0,5-2,12-9,17
		c-12,9-57,41-57,59v23h-65v-86c0-6,1-10,15-16l65-29c16-7,26,17,10,24l-54,24c-3,1-2,6,2,5l60-27c7-3,7-5,8-11l18-76
		C112,269.8,134,273.8,132,289.8z"/>
</g>
</svg>
