<?xml version="1.0" encoding="utf-8"?>
<!-- Generator: Adobe Illustrator 19.0.0, SVG Export Plug-In . SVG Version: 6.00 Build 0)  -->
<svg version="1.1" id="Calque_1" xmlns="http://www.w3.org/2000/svg" xmlns:xlink="http://www.w3.org/1999/xlink" x="0px" y="0px"
	 viewBox="-328 330 62 62" style="enable-background:new -328 330 62 62;" xml:space="preserve">
<title>noun_Candidate_2499667</title>
<desc>Created with Sketch.</desc>
<g id="Page-1">
	<g id="noun_Candidate_2499667">
		<g id="Group">
			<path id="Shape" d="M-297,356c6.1,0,11-4.9,11-11s-4.9-11-11-11s-11,4.9-11,11S-303.1,356-297,356z M-303,351.7
				c0.2-3.2,2.8-5.7,6-5.7s5.8,2.5,6,5.7c-1.6,1.4-3.7,2.3-6,2.3S-301.4,353.1-303,351.7z M-299,342c0-1.1,0.9-2,2-2s2,0.9,2,2
				s-0.9,2-2,2S-299,343.1-299,342z M-297,336c5,0,9,4,9,9c0,1.7-0.5,3.3-1.3,4.7c-0.7-2.3-2.4-4.2-4.6-5.1c0.6-0.7,1-1.6,1-2.6
				c0-2.2-1.8-4-4-4s-4,1.8-4,4c0,1,0.4,1.9,1,2.6c-2.2,0.9-3.9,2.8-4.6,5.1c-0.8-1.4-1.3-3-1.3-4.7C-306,340-302,336-297,336z"/>
			<rect id="Rectangle" x="-322" y="386" width="2" height="2"/>
			<rect id="Rectangle_1_" x="-322" y="390" width="2" height="2"/>
			<rect id="Rectangle_2_" x="-318" y="374" width="2" height="18"/>
			<rect id="Rectangle_3_" x="-314" y="382" width="2" height="2"/>
			<rect id="Rectangle_4_" x="-314" y="386" width="2" height="6"/>
			<rect id="Rectangle_5_" x="-308" y="360" width="2" height="2"/>
			<rect id="Rectangle_6_" x="-304" y="360" width="6" height="2"/>
			<rect id="Rectangle_7_" x="-308" y="364" width="10" height="2"/>
			<rect id="Rectangle_8_" x="-324" y="366" width="10" height="2"/>
			<rect id="Rectangle_9_" x="-324" y="370" width="10" height="2"/>
			<path id="Shape_1_" d="M-282,336v-6h-30v6h-16v40h6v8h2v-10h-6v-36h14v2c-0.3,0-0.7,0-1,0c-6.1,0-11,4.9-11,11s4.9,11,11,11
				c0.3,0,0.7,0,1,0v8h4v4h-6v6h2v-4h4v1.3c0,0.6,0.2,1.3,0.6,1.8l2.2,2.9c0.1,0.2,0.2,0.4,0.2,0.6v3.3h-2v6h20v-6h-2v-3.3
				c0-0.2,0.1-0.4,0.2-0.6l2.2-2.9c0.4-0.5,0.6-1.2,0.6-1.8V376h4v4h2v-6h-6v-4h4v-8c0.3,0,0.7,0,1,0c6.1,0,11-4.9,11-11
				s-4.9-11-11-11c-0.3,0-0.7,0-1,0v-2h14v36h-6v10h2v-8h6v-40H-282z M-281,350c-0.4,0-0.7-0.1-1-0.3v-3.5c0.3-0.2,0.6-0.3,1-0.3
				c1.1,0,2,0.9,2,2S-279.9,350-281,350z M-315,348c0-1.1,0.9-2,2-2c0.4,0,0.7,0.1,1,0.3v3.5c-0.3,0.2-0.6,0.3-1,0.3
				C-314.1,350-315,349.1-315,348z M-313,342c0.3,0,0.7,0,1,0.1v2.1c-0.3-0.1-0.7-0.1-1-0.1c-2.2,0-4,1.8-4,4c0,1,0.4,1.9,1,2.6
				c-2.2,0.9-3.9,2.8-4.6,5.1c-0.8-1.4-1.3-3-1.3-4.7C-322,346-318,342-313,342z M-313,360c-2.3,0-4.4-0.9-6-2.3
				c0.2-3.2,2.8-5.7,6-5.7c0.3,0,0.7,0,1,0.1v7.8C-312.3,360-312.7,360-313,360z M-289,390h-16v-2h16V390z M-288,377.3
				c0,0.2-0.1,0.4-0.2,0.6l-2.2,2.9c-0.4,0.5-0.6,1.2-0.6,1.8v3.3h-12v-3.3c0-0.6-0.2-1.3-0.6-1.8l-2.2-2.9
				c-0.1-0.2-0.2-0.4-0.2-0.6V370h2v5h2v-5h2v5h2v-5h3.7c-1.1,1.4-1.7,3.2-1.7,5h2c0-1.7,0.6-3.2,1.8-4.4l1.2-1.2v-4.8l-2.7-2.7
				c-0.2-0.2-0.3-0.5-0.3-0.8c0-0.6,0.5-1.1,1.1-1.1h0.1c0.3,0,0.5,0.1,0.7,0.2l3.7,2.9c0.2,0.2,0.4,0.5,0.4,0.8V377.3z M-284,368
				h-2v-4c0-0.9-0.4-1.8-1.1-2.3l-3.7-2.9c-0.6-0.4-1.2-0.7-1.9-0.7h-0.1c-1.7,0-3.1,1.4-3.1,3.1c0,0.8,0.3,1.6,0.9,2.2l2.1,2.1v2.6
				h-17v-36h26V368z M-282,359.9v-7.8c0.3-0.1,0.7-0.1,1-0.1c3.2,0,5.8,2.5,6,5.7c-1.6,1.4-3.7,2.3-6,2.3
				C-281.3,360-281.7,360-282,359.9z M-281,342c5,0,9,4,9,9c0,1.7-0.5,3.3-1.3,4.7c-0.7-2.3-2.4-4.2-4.6-5.1c0.6-0.7,1-1.6,1-2.6
				c0-2.2-1.8-4-4-4c-0.3,0-0.7,0.1-1,0.1v-2.1C-281.7,342-281.3,342-281,342z"/>
			<rect id="Rectangle_10_" x="-274" y="386" width="2" height="2"/>
			<rect id="Rectangle_11_" x="-274" y="390" width="2" height="2"/>
			<rect id="Rectangle_12_" x="-278" y="374" width="2" height="18"/>
			<rect id="Rectangle_13_" x="-282" y="382" width="2" height="2"/>
			<rect id="Rectangle_14_" x="-282" y="386" width="2" height="6"/>
			<rect id="Rectangle_15_" x="-280" y="366" width="10" height="2"/>
			<rect id="Rectangle_16_" x="-280" y="370" width="10" height="2"/>
		</g>
	</g>
</g>
</svg>
