<?xml version="1.0" encoding="utf-8"?>
<!-- Generator: Adobe Illustrator 19.0.0, SVG Export Plug-In . SVG Version: 6.00 Build 0)  -->
<svg version="1.1" id="Calque_1" xmlns="http://www.w3.org/2000/svg" xmlns:xlink="http://www.w3.org/1999/xlink" x="0px" y="0px"
	 viewBox="-228 242.4 262.3 189.3" style="enable-background:new -228 242.4 262.3 189.3;" xml:space="preserve">
<g>
	<path d="M-34,378.4v11h2.3v38.7h11v-14h40.9c0.6,4.7,1.3,9.3,2.1,14h11.2c-7.9-44.2-7.6-89.5,0.8-133.7c-3.6-0.7-7.2-1.4-10.8-2.1
		c-5.4,28.4-7.5,57.3-6.4,86.1H-34z M19.5,408.1h-40.2v-18.7h38.4C18.2,395.7,18.8,401.9,19.5,408.1z"/>
	<ellipse cx="-44.2" cy="264.9" rx="22.5" ry="22.5"/>
	<path d="M-15.7,291c1.1,0,2.2,0.2,3.3,0.6c2.5,0.9,4.6,2.7,5.7,5.1c1.2,2.4,1.3,5.1,0.4,7.6C-6.9,306-10.4,315-20.9,324
		c-1.3,1.1-2.7,2.2-4.2,3.3c1.2,7.1,2.1,14.6,2.1,22h-23.6v2.6v2h-2h-6.8v77c0.2,0,0.5,0,0.7,0c0.8,0,1.7-0.1,2.6-0.3
		c6.8-1.4,11.1-8,9.7-14.8l-8.6-41.6h41.3c0.7,0,1.3-0.1,1.9-0.2c8.3-0.4,17.2-3.4,20-17.6c2.6-22.2,1.1-35.3-5.7-55.5
		c-5-14.6-17.4-19.3-25.9-17.1c-7.6,1.9-11.4,11.5-10.1,20.7c3.1-3.6,4.3-6.4,4.5-6.9C-23.8,293.7-20,291-15.7,291z"/>
	<polygon points="-77.8,368.3 -71.9,396.8 -71.9,368.3 	"/>
	<path d="M-22.2,322.4c10.4-8.9,13.7-17.9,14-18.8c1.5-4.2-0.8-8.7-4.9-10.2c-4.2-1.4-8.7,0.7-10.2,4.9l0,0
		c-0.3,0.8-3,7.1-10.8,13.1c-7.8,6-20.7,12.2-43,12.2c-4.4,0-8,3.6-8,8c0,3.4,2.2,6.4,5.2,7.5h14C-45.2,337.3-31.1,330.1-22.2,322.4
		z"/>
	<circle cx="-158.6" cy="280.8" r="20.9"/>
	<polygon points="-156.7,351.8 -147.9,351.8 -147.9,431.7 -135.4,431.7 -135.4,366.3 -69.9,366.3 -69.9,431.7 -57.4,431.7 
		-57.4,351.8 -48.7,351.8 -48.7,341.2 -156.7,341.2 	"/>
	<path d="M-173,428.1h11v-5.6c0.6,0.3,1.3,0.5,2,0.7c0.8,0.2,1.6,0.3,2.3,0.3c3,0,5.8-1.3,7.7-3.5v-65.3l-23.4-0.3
		c0.2-6.2,1.2-12.6,2.4-18.6c-2.9-1.5-5.2-3.1-6.8-4.4c-4.8-3.9-7.4-7.8-8.3-9.3c-2.6-4.3-1.1-9.9,3.2-12.4c1.4-0.8,3-1.2,4.5-1.2
		c3.2,0,6.1,1.7,7.8,4.4l0.1,0.2c0.1,0.2,0.4,0.5,0.7,0.9c0.6,0.8,1.6,1.9,3,3.1c0.6-6.8-2.7-13.6-9-14.9
		c-7.6-1.6-18.7,2.3-23.4,14.1c-6.3,16.3-7.8,26.9-5.8,44.8c2.6,12.9,12.4,14.1,20.6,13.9c0.3,0,0.5,0,0.8,0l23.8,0.3l-0.7,3.1
		h-50.4c1.1-28.8-1-57.6-6.4-86.1c-3.6,0.7-7.2,1.4-10.8,2.1c8.4,44.1,8.7,89.4,0.8,133.7h11.2c0.8-4.7,1.5-9.3,2.1-14h40.9V428.1z
		 M-213.2,408.1c0.7-6.2,1.3-12.4,1.8-18.7h38.4v18.7H-213.2z"/>
	<path d="M-132.5,316.6l-10.2-10.2l-2.3,2.3l9.2,9.2c0.3-0.2,0.7-0.3,1-0.5C-134.1,317-133.3,316.8-132.5,316.6z"/>
	<path d="M-121,332.8l2.3-2.3l-3.2-3.2c-0.2,1.1-0.7,2.2-1.4,3.2L-121,332.8z"/>
	<path d="M-96.3,337.4v-3.4h-31.4c-2.7,1.4-5.5,2.5-8.2,3.4H-96.3z"/>
	<path d="M-171.2,315.3c-0.4-0.5-0.7-0.9-0.8-1.1c-0.1-0.1-0.1-0.2-0.1-0.2c-2-3.3-6.2-4.4-9.6-2.5c-3.3,2-4.4,6.2-2.5,9.6
		c0.3,0.5,2.7,4.6,7.9,8.8c5.1,4.2,13.2,8.5,23.9,8.5c0,0,0,0,0.1,0c7.3,0,15.7-2,24.9-6.7c3.4-1.8,4.8-6,3-9.4
		c-1.8-3.4-6-4.8-9.4-3c-7.6,3.9-13.7,5.2-18.5,5.2c-7,0-11.8-2.6-15.2-5.3C-169.2,317.7-170.5,316.3-171.2,315.3z"/>
</g>
</svg>
