<?xml version="1.0" encoding="utf-8"?>
<!-- Generator: Adobe Illustrator 24.0.1, SVG Export Plug-In . SVG Version: 6.00 Build 0)  -->
<svg version="1.1" id="Calque_1" xmlns="http://www.w3.org/2000/svg" xmlns:xlink="http://www.w3.org/1999/xlink" x="0px" y="0px"
	 viewBox="0 0 512 512" style="enable-background:new 0 0 512 512;" xml:space="preserve">
<path d="M368,101c-2.63,0-5.21,1.07-7.07,2.93S358,108.37,358,111s1.07,5.21,2.93,7.07S365.37,121,368,121s5.21-1.07,7.07-2.93
	S378,113.63,378,111s-1.07-5.21-2.93-7.07S370.63,101,368,101z"/>
<path d="M502,207H378v-56c0-5.52-4.48-10-10-10s-10,4.48-10,10v341h-36V368c0-5.52-4.48-10-10-10H200c-5.52,0-10,4.48-10,10v124h-36
	V20h204v51c0,5.52,4.48,10,10,10s10-4.48,10-10V10c0-5.52-4.48-10-10-10H144c-5.52,0-10,4.48-10,10v197H10c-5.52,0-10,4.48-10,10
	v285c0,5.52,4.48,10,10,10h492c5.52,0,10-4.48,10-10V217C512,211.48,507.52,207,502,207z M20,227h114v265H20V227z M210,378h36v114
	h-36V378z M266,492v-47h4.5c5.52,0,10-4.48,10-10s-4.48-10-10-10H266v-47h36v114H266z M492,492H378V227h114V492z"/>
<path d="M53,333.25c-5.52,0-10,4.48-10,10v32.5c0,5.52,4.48,10,10,10s10-4.48,10-10v-32.5C63,337.73,58.52,333.25,53,333.25z"/>
<path d="M101,333.25c-5.52,0-10,4.48-10,10v32.5c0,5.52,4.48,10,10,10s10-4.48,10-10v-32.5C111,337.73,106.52,333.25,101,333.25z"/>
<path d="M53,410.75c-5.52,0-10,4.48-10,10v32.5c0,5.52,4.48,10,10,10s10-4.48,10-10v-32.5C63,415.23,58.52,410.75,53,410.75z"/>
<path d="M101,410.75c-5.52,0-10,4.48-10,10v32.5c0,5.52,4.48,10,10,10s10-4.48,10-10v-32.5C111,415.23,106.52,410.75,101,410.75z"/>
<path d="M53,255.75c-5.52,0-10,4.48-10,10v32.5c0,5.52,4.48,10,10,10s10-4.48,10-10v-32.5C63,260.23,58.52,255.75,53,255.75z"/>
<path d="M101,255.75c-5.52,0-10,4.48-10,10v32.5c0,5.52,4.48,10,10,10s10-4.48,10-10v-32.5C111,260.23,106.52,255.75,101,255.75z"/>
<path d="M413.09,385.75c5.52,0,10-4.48,10-10v-32.5c0-5.52-4.48-10-10-10s-10,4.48-10,10v32.5
	C403.09,381.27,407.56,385.75,413.09,385.75z"/>
<path d="M461.09,385.75c5.52,0,10-4.48,10-10v-32.5c0-5.52-4.48-10-10-10s-10,4.48-10,10v32.5
	C451.09,381.27,455.56,385.75,461.09,385.75z"/>
<path d="M413.09,463.25c5.52,0,10-4.48,10-10v-32.5c0-5.52-4.48-10-10-10s-10,4.48-10,10v32.5
	C403.09,458.77,407.56,463.25,413.09,463.25z"/>
<path d="M461.09,463.25c5.52,0,10-4.48,10-10v-32.5c0-5.52-4.48-10-10-10s-10,4.48-10,10v32.5
	C451.09,458.77,455.56,463.25,461.09,463.25z"/>
<path d="M413.09,308.25c5.52,0,10-4.48,10-10v-32.5c0-5.52-4.48-10-10-10s-10,4.48-10,10v32.5
	C403.09,303.77,407.56,308.25,413.09,308.25z"/>
<path d="M461.09,308.25c5.52,0,10-4.48,10-10v-32.5c0-5.52-4.48-10-10-10s-10,4.48-10,10v32.5
	C451.09,303.77,455.56,308.25,461.09,308.25z"/>
<path d="M210,215c0-5.52-4.48-10-10-10s-10,4.48-10,10v32.5c0,5.52,4.48,10,10,10s10-4.48,10-10V215z"/>
<path d="M266,215c0-5.52-4.48-10-10-10s-10,4.48-10,10v32.5c0,5.52,4.48,10,10,10s10-4.48,10-10V215z"/>
<path d="M322,215c0-5.52-4.48-10-10-10s-10,4.48-10,10v32.5c0,5.52,4.48,10,10,10s10-4.48,10-10V215z"/>
<path d="M200,282.5c-5.52,0-10,4.48-10,10V325c0,5.52,4.48,10,10,10s10-4.48,10-10v-32.5C210,286.98,205.52,282.5,200,282.5z"/>
<path d="M256,282.5c-5.52,0-10,4.48-10,10V325c0,5.52,4.48,10,10,10s10-4.48,10-10v-32.5C266,286.98,261.52,282.5,256,282.5z"/>
<path d="M312,282.5c-5.52,0-10,4.48-10,10V325c0,5.52,4.48,10,10,10s10-4.48,10-10v-32.5C322,286.98,317.52,282.5,312,282.5z"/>
<path d="M239.09,82.6v4.3c-17.87,2.17-31.5,17.32-31.5,35.63c0,19.79,16.1,35.89,35.89,35.89c7.9,0,15.39-2.52,21.66-7.27
	c3.97-3.01,7.28-6.86,9.7-11.19l3.74,9.58c1.16,2.98,3.98,4.91,7.19,4.91h10.57c2.26,0,4.43-0.96,5.95-2.62
	c1.53-1.66,2.28-3.91,2.08-6.17c-0.36-4.12-3.94-7.35-8.15-7.35h-2.42l-8.27-22.26c-2.22-5.98-8-10-14.38-10h-5.26v-5.66h15.43
	c5.04,0,9.14-4.1,9.14-9.14c0-5.04-4.1-9.14-9.14-9.14H265.9c-0.09-3.54-1.6-6.95-4.17-9.39c-0.15-0.14-0.3-0.28-0.46-0.41
	c3.21-2.58,5.27-6.53,5.27-10.96c0-7.74-6.3-14.04-14.04-14.04c-7.74,0-14.04,6.3-14.04,14.04c0,4.44,2.07,8.4,5.29,10.97
	C240.89,74.81,239.09,78.5,239.09,82.6z M252.5,128.45h5.36c-2.35,5.69-7.98,9.64-14.38,9.64c-8.58,0-15.56-6.98-15.56-15.55
	c0-7.02,4.7-13.02,11.18-14.93v7.44C239.09,122.43,245.1,128.45,252.5,128.45z M243.48,152.06c-16.29,0-29.54-13.25-29.54-29.54
	c0-14.79,10.83-27.09,25.15-29.21v7.75c-10.04,2.04-17.53,10.95-17.53,21.47c0,12.08,9.83,21.91,21.91,21.91
	c9.91,0,18.49-6.69,21.1-15.99h5.79l1.24,3.17C267.69,143.69,256.23,152.06,243.48,152.06z M262.72,88.46h18.61
	c1.54,0,2.79,1.25,2.79,2.79c0,1.54-1.25,2.79-2.79,2.79h-18.61c-1.75,0-3.18,1.42-3.18,3.18v12.01c0,1.75,1.42,3.18,3.18,3.18h8.44
	c3.74,0,7.12,2.35,8.42,5.86l1.4,3.76l7.64,20.57c0.46,1.24,1.65,2.07,2.98,2.07h4.63c0.94,0,1.74,0.68,1.82,1.55
	c0.06,0.67-0.25,1.12-0.44,1.32c-0.19,0.21-0.61,0.56-1.26,0.56h-10.57c-0.56,0-1.06-0.34-1.27-0.86l-9.01-23.11
	c-0.48-1.22-1.65-2.02-2.96-2.02H252.5c-3.89,0-7.05-3.16-7.05-7.05V82.6c0-3.85,2.93-7.01,6.67-7.2c0.13-0.01,0.25-0.01,0.38-0.01
	c1.82,0,3.53,0.68,4.85,1.94c1.42,1.35,2.2,3.16,2.2,5.11v2.84C259.55,87.04,260.97,88.46,262.72,88.46z M252.5,53.65
	c4.24,0,7.69,3.45,7.69,7.69c0,4.24-3.45,7.69-7.69,7.69c-0.01,0-0.01,0-0.02,0c-4.23-0.01-7.67-3.46-7.67-7.69
	C244.81,57.1,248.26,53.65,252.5,53.65z"/>
</svg>
