<?xml version="1.0" encoding="utf-8"?>
<!-- Generator: Adobe Illustrator 24.0.1, SVG Export Plug-In . SVG Version: 6.00 Build 0)  -->
<svg version="1.1" id="Calque_1" xmlns="http://www.w3.org/2000/svg" xmlns:xlink="http://www.w3.org/1999/xlink" x="0px" y="0px"
	 viewBox="0 0 512 512" style="enable-background:new 0 0 512 512;" xml:space="preserve">
<path d="M452.94,400.61l-29.14-74.88c-9.37-24.07-32.11-39.63-57.95-39.63h-29.3c-0.36,0-0.71,0.02-1.07,0.06
	c-1.67-1.77-3.38-3.49-5.14-5.16v-9.57h42.98c16.54,0,30-13.46,30-30s-13.46-30-30-30h-42.99c-0.3-16.98-8.8-31.99-21.68-41.26
	c12.07-9.18,19.89-23.68,19.89-39.98c0-27.68-22.52-50.2-50.2-50.2c-27.68,0-50.2,22.52-50.2,50.2c0,16.3,7.81,30.8,19.89,39.98
	c-13.12,9.45-21.69,24.85-21.69,42.21v32.27c-5.9,0.52-11.69,1.42-17.35,2.68v-45c0-5.52-4.48-10-10-10h-20.76
	c-0.09-7.35-2.85-14.68-8.29-20.36l-53.15-68.09c-2.39-3.86-5.3-7.3-8.57-10.32c14.92-8.71,24.98-24.88,24.98-43.38
	C133.2,22.52,110.68,0,83,0S32.8,22.52,32.8,50.2c0,14.71,6.37,27.97,16.49,37.16C34.76,96.02,25,111.89,25,130v132.98
	c0,18.91,5.43,37.3,15.71,53.17l8.29,12.8V502c0,5.52,4.48,10,10,10h75.22c5.52,0,10-4.48,10-10c0-16.32-7.86-30.84-20-39.97
	c0-0.01,0-0.02,0-0.03v-13.61C147.85,486.54,190.08,512,238.15,512c43.92,0,82.96-21.25,107.4-54h48.61
	c-2.65,5.09-4.16,10.87-4.16,17c0,20.4,16.6,37,37,37s37-16.6,37-37c0-6.13-1.51-11.91-4.15-17h17.09c5.52,0,10-4.48,10-10v-6.92
	C486.94,420.84,472.23,403.98,452.94,400.61z M278.35,100c16.65,0,30.2,13.55,30.2,30.2s-13.54,30.2-30.2,30.2
	c-16.65,0-30.2-13.55-30.2-30.2S261.7,100,278.35,100z M246.35,212.39c0-17.64,14.36-32,32-32s32,14.36,32,32v9.04
	c0,5.52,4.48,10,10,10h52.98c5.52,0,10,4.49,10,10c0,5.52-4.48,10-10,10h-52.98c-5.52,0-10,4.48-10,10v3.86
	c-18.69-12-40.54-19.48-64-20.91V212.39z M170.93,212.33H189v41.14c-26.98,10.68-49.68,29.88-64.78,54.26v-96.65l2.83,2.83
	c5.67,5.66,13.2,8.79,21.21,8.79c8.01,0,15.55-3.12,21.21-8.79C169.98,213.4,170.47,212.87,170.93,212.33z M83,20
	c16.65,0,30.2,13.55,30.2,30.2S99.65,80.39,83,80.39S52.8,66.84,52.8,50.2S66.35,20,83,20z M57.5,305.28
	c-8.18-12.63-12.5-27.26-12.5-42.3V256h59.22v196H69V326c0-1.93-0.56-3.82-1.61-5.43L57.5,305.28z M69,492v-20h25.22
	c13.04,0,24.16,8.36,28.29,20H69z M121.29,179.87c-2.86-2.86-7.16-3.71-10.9-2.17c-3.73,1.55-6.17,5.2-6.17,9.24V236H45V130
	c0-16.33,13.28-29.61,29.61-29.61c10.48,0,19.97,5.37,25.38,14.36c0.21,0.34,0.44,0.68,0.69,0.99l53.84,68.97
	c0.25,0.32,0.52,0.62,0.81,0.91c1.89,1.89,2.93,4.4,2.93,7.07c0,2.67-1.04,5.18-2.93,7.07c-1.89,1.89-4.4,2.93-7.07,2.93
	s-5.18-1.04-7.07-2.93L121.29,179.87z M238.15,492c-62.82,0-113.93-51.11-113.93-113.93s51.11-113.94,113.93-113.94
	s113.94,51.11,113.94,113.94S300.98,492,238.15,492z M371.55,366.17h0.05L404.22,438h-46.32c9.07-18.04,14.18-38.4,14.18-59.93
	C372.09,374.05,371.9,370.09,371.55,366.17z M427,492c-9.38,0-17-7.62-17-17s7.62-17,17-17s17,7.62,17,17S436.38,492,427,492z
	 M427,438h-0.81l-39.03-85.96c-1.62-3.57-5.18-5.86-9.11-5.86h-9.81c-3.53-14.41-9.39-27.9-17.17-40.07h14.79
	c17.52,0,32.95,10.55,39.3,26.88l31.38,80.64c1.5,3.84,5.2,6.38,9.32,6.38c10.58,0,19.36,7.83,20.86,18H427z"/>
<path d="M280.15,378.07c0-23.16-18.84-42-42-42c-23.16,0-42,18.84-42,42c0,23.16,18.84,42,42,42
	C261.31,420.07,280.15,401.22,280.15,378.07z M216.15,378.07c0-12.13,9.87-22,22-22c12.13,0,22,9.87,22,22c0,12.13-9.87,22-22,22
	C226.02,400.07,216.15,390.2,216.15,378.07z"/>
<path d="M321.33,368.07c-5.52,0-10,4.48-10,10c0,27.2-14.95,52-39.01,64.73c-4.88,2.58-6.75,8.63-4.16,13.52
	c1.79,3.39,5.26,5.33,8.85,5.33c1.58,0,3.18-0.38,4.67-1.16c30.63-16.21,49.66-47.79,49.66-82.41
	C331.33,372.54,326.86,368.07,321.33,368.07z"/>
<path d="M238.29,451.25c0,0-0.01,0-0.02,0c-5.56-0.03-10.07,4.43-10.08,9.98c-0.01,5.52,4.49,10,10,10.02v0c0.09,0,0.17,0,0.25,0
	c5.52-0.04,9.92-4.54,9.89-10.06C248.3,455.68,243.78,451.25,238.29,451.25z"/>
</svg>
