<?xml version="1.0" encoding="utf-8"?>
<!-- Generator: Adobe Illustrator 24.0.1, SVG Export Plug-In . SVG Version: 6.00 Build 0)  -->
<svg version="1.1" id="Calque_1" xmlns="http://www.w3.org/2000/svg" xmlns:xlink="http://www.w3.org/1999/xlink" x="0px" y="0px"
	 viewBox="0 0 512 512" style="enable-background:new 0 0 512 512;" xml:space="preserve">
<path d="M255.19,316.34h36.65c4.09,0,7.77-2.5,9.29-6.3l16.12-40.49c6.96,12.09,16.33,22.82,27.5,31.29
	c18.24,13.83,40.01,21.14,62.95,21.14c11.69,0,23.16-1.92,34.11-5.71c5.22-1.8,7.99-7.5,6.18-12.72c-1.81-5.22-7.5-7.98-12.72-6.18
	c-8.84,3.06-18.12,4.61-27.57,4.61c-36.34,0-68.99-23.84-80.18-58.23l3.25-8.15h50.95c21.77,0,39.48-17.71,39.48-39.48v-61.64
	c40.39,6.46,70.79,41.32,70.79,83.21c0,10.24-1.81,20.24-5.39,29.72c-1.95,5.17,0.66,10.94,5.83,12.89
	c1.16,0.44,2.35,0.64,3.52,0.64c4.04,0,7.85-2.47,9.36-6.48c4.43-11.75,6.67-24.12,6.67-36.78c0-52.93-39.23-96.8-90.79-103.43
	v-11.58c0-11.66-5.01-22.28-13-29.64c9.07-7.59,14.85-18.98,14.85-31.7C423.05,18.54,404.51,0,381.73,0S340.4,18.54,340.4,41.32
	c0,12.67,5.74,24.03,14.75,31.61c-0.1,0.09-0.2,0.17-0.29,0.26c-6.77,6.29-11.11,14.79-12.29,23.88h-28.36
	c-16.27,0-29.5,13.23-29.5,29.5s13.23,29.5,29.5,29.5h28.03v13.27h-22.91c-18.74,0-35.71,11.8-42.24,29.36l-23.65,63.66
	c-14.09,0.9-25.27,12.64-25.27,26.95C228.18,304.22,240.29,316.34,255.19,316.34z M381.73,20c11.76,0,21.32,9.57,21.32,21.32
	s-9.57,21.32-21.32,21.32s-21.32-9.57-21.32-21.32S369.97,20,381.73,20z M255.19,282.32h5.23c4.18,0,7.92-2.6,9.38-6.52l26.05-70.12
	c3.63-9.77,13.07-16.33,23.49-16.33h32.91c5.52,0,10-4.48,10-10v-33.27c0-5.52-4.48-10-10-10h-38.03c-5.24,0-9.5-4.27-9.5-9.5
	c0-5.24,4.27-9.5,9.5-9.5h33.09c8.24,0,14.94-6.7,14.94-14.94c0-5.48,2.21-10.55,6.23-14.28c4.01-3.73,9.25-5.55,14.76-5.14
	c10.08,0.75,17.98,9.52,17.98,19.96v93.44c0,10.74-8.74,19.48-19.48,19.48h-57.74c-4.09,0-7.77,2.5-9.29,6.3l-29.65,74.45h-29.87
	c-3.86,0-7.01-3.14-7.01-7.01S251.32,282.32,255.19,282.32z"/>
<path d="M466.84,277.74c-0.05,0.05-0.13,0.13-0.18,0.18c-3.9,3.91-3.9,10.23,0,14.14c1.95,1.95,4.51,2.93,7.07,2.93
	c2.54,0,5.08-0.96,7.03-2.89c3.92-3.84,4.02-10.12,0.21-14.08C477.15,274.04,470.82,273.91,466.84,277.74z"/>
<path d="M454.51,361.39l-66.06,47.49c-1.29-6.83-4.47-13.23-9.33-18.09c-5.67-5.67-13.2-8.79-21.21-8.79h-71.04
	c-5.34,0-10.36-2.08-14.12-5.84l-53.2-53.45c-11.34-11.33-26.4-17.57-42.43-17.57H90.36c-0.12,0-0.24-0.02-0.36-0.02H10
	c-5.52,0-10,4.48-10,10V502c0,5.52,4.48,10,10,10h80c5.52,0,10-4.48,10-10v-7.48l47.31,13.26c10,2.8,20.33,4.22,30.71,4.22h169.04
	c22.06,0,43.73-7.54,61.02-21.24l90.16-71.44c8.09-6.41,13.08-16,13.69-26.3c0.61-10.3-3.21-20.41-10.48-27.74
	C488.81,352.55,469.07,350.92,454.51,361.39z M80,492H20V325.12h20v95.02c0,5.52,4.48,10,10,10s10-4.48,10-10v-95.02h20V492z
	 M491.97,391.83c-0.28,4.7-2.46,8.89-6.15,11.81l-90.16,71.44C381.89,485.99,364.63,492,347.06,492H178.02
	c-8.56,0-17.07-1.17-25.31-3.48L100,473.75V325.13h77.11c10.69,0,20.73,4.16,28.27,11.7l53.2,53.45
	c7.55,7.55,17.6,11.71,28.29,11.71h71.04c2.67,0,5.18,1.04,7.07,2.93c4.59,4.59,4.96,12.14,2.98,16.92
	c-0.66,1.6-1.45,2.69-2.26,3.45c-0.09,0.07-0.18,0.14-0.26,0.21c-1.71,1.44-3.45,1.45-4.19,1.45H250.75
	c-6.91,0-13.62-1.99-19.42-5.76l-32.12-20.89l-0.12-0.08c-4.63-3-10.82-1.68-13.83,2.95c-3,4.64-1.68,10.83,2.95,13.83l32.21,20.95
	c9.05,5.89,19.53,9,30.32,9h110.49c6.53,0,12.43-2.21,17.12-6.2l87.82-63.14c6.54-4.7,15.41-3.96,21.08,1.75
	C490.58,382.71,492.25,387.14,491.97,391.83z"/>
<path d="M50,450.14c-2.63,0-5.21,1.06-7.07,2.92S40,457.5,40,460.14c0,2.63,1.07,5.21,2.93,7.07s4.44,2.92,7.07,2.92
	s5.21-1.06,7.07-2.92s2.93-4.44,2.93-7.07c0-2.64-1.07-5.22-2.93-7.08S52.63,450.14,50,450.14z"/>
</svg>
