<svg xmlns="http://www.w3.org/2000/svg" xmlns:xlink="http://www.w3.org/1999/xlink" version="1.1" id="Calque_1" x="0px" y="0px" viewBox="0 0 291.9 97.6" style="enable-background:new 0 0 291.9 97.6;" xml:space="preserve" class="style-svg replaced-svg svg-replaced-0">
<style type="text/css">
	.st0{display:none;enable-background:new    ;}
	.st1{display:inline;}
	.st2{font-family:'TXTGroovySmooth';}
	.st3{font-size:89.6651px;}
	.st4{letter-spacing:1;}
	.st5{display:inline;fill:#FFFFFF;}
	.st6{display:none;}
	.st7{fill:#B33588;}
	.st8{display:inline;fill:url(#SVGID_1_);}
	.st9{display:inline;fill:url(#SVGID_2_);}
	.st10{display:inline;fill:url(#SVGID_3_);}
	.st11{display:inline;fill:url(#SVGID_4_);}
	.st12{display:inline;fill:url(#SVGID_5_);}
	.st13{display:inline;fill:url(#SVGID_6_);}
	.st14{display:inline;fill:url(#SVGID_7_);}
	.st15{display:inline;fill:url(#SVGID_8_);}
	.st16{display:inline;fill:url(#SVGID_9_);}
	.st17{display:inline;fill:url(#SVGID_10_);}
	.st18{display:inline;fill:url(#SVGID_11_);}
	.st19{display:inline;fill:url(#SVGID_12_);}
	.st20{display:inline;fill:url(#SVGID_13_);}
	.st21{display:inline;fill:url(#SVGID_14_);}
	.st22{display:inline;fill:url(#SVGID_15_);}
	.st23{display:inline;fill:url(#SVGID_16_);}
	.st24{fill:url(#SVGID_17_);}
	.st25{fill:url(#SVGID_18_);}
	.st26{fill:url(#SVGID_19_);}
	.st27{fill:url(#SVGID_20_);}
	.st28{fill:url(#SVGID_21_);}
	.st29{fill:url(#SVGID_22_);}
</style>
<g>
	<text transform="matrix(1 0 0 1 -10.9082 85.4105)" class="st0"><tspan x="0" y="0" class="st1 st2 st3 st4">Parent</tspan><tspan x="258.7" y="0" class="st5 st2 st3 st4">e</tspan><tspan x="312.4" y="0" class="st1 st2 st3 st4">Z</tspan></text>
	<text transform="matrix(1 0 0 1 -6.8694 73.7879)" class="st6 st2 st3 st4">ParenteZ</text>
	<g>
		<path d="M2.2,11.9h13.2v26.4h24.8V11.9h13.2v65.7H40.2V51.5H15.3v26.1H2.2V11.9z"></path>
		<path d="M92.6,75c-3.6,1.7-7.2,2.6-10.8,2.6c-6.6,0-12.2-2.4-16.9-7.1c-4.7-4.7-7-10.4-7-17c0-6.7,2.3-12.3,7-17    c4.7-4.6,10.4-7,17-7c5,0,9.5,1.4,13.7,4.3c4.2,2.9,7.1,6.7,8.7,11.3c1,2.7,1.4,4.9,1.4,6.7v25.6H92.6V75z M71.1,53.6    c0,2.9,1.1,5.5,3.2,7.6c2.1,2.1,4.6,3.2,7.6,3.2c2.9,0,5.5-1.1,7.6-3.2c2.1-2.1,3.2-4.6,3.2-7.6c0-2.9-1-5.4-3.1-7.5    c-2.1-2.1-4.6-3.2-7.5-3.2c-2.9,0-5.5,1-7.6,3.1S71.1,50.6,71.1,53.6z"></path>
		<path d="M110.4,12.5h13.2v19.5c3.7-1.7,7.3-2.5,10.8-2.5c6.7,0,12.4,2.3,17,7c4.6,4.7,6.9,10.3,6.9,17c0,6.6-2.3,12.3-7,16.9    c-4.7,4.6-10.4,7-17,7c-5.3,0-10.1-1.6-14.4-4.9c-4.3-3.3-7.2-7.5-8.6-12.6c-0.1-0.6-0.3-1.3-0.4-2.1c-0.2-1.7-0.4-2.6-0.4-2.9    V12.5z M123.6,54.9c0.4,2.6,1.6,4.8,3.6,6.6c2.1,1.8,4.4,2.7,7,2.7c2.9,0,5.5-1,7.6-3.1c2.1-2.1,3.2-4.6,3.2-7.5    c0-3-1.1-5.5-3.2-7.6c-2.1-2.1-4.6-3.1-7.6-3.1c-3,0-5.5,1-7.6,3.1c-2.1,2.1-3.1,4.6-3.1,7.6V54.9z"></path>
		<path d="M162.8,12.5H176v19.5c3.7-1.7,7.3-2.5,10.8-2.5c6.7,0,12.4,2.3,17,7c4.6,4.7,6.9,10.3,6.9,17c0,6.6-2.3,12.3-7,16.9    c-4.7,4.6-10.4,7-17,7c-5.3,0-10.1-1.6-14.4-4.9c-4.3-3.3-7.2-7.5-8.6-12.6c-0.1-0.6-0.3-1.3-0.4-2.1c-0.2-1.7-0.4-2.6-0.4-2.9    V12.5z M176.1,54.9c0.4,2.6,1.6,4.8,3.6,6.6c2.1,1.8,4.4,2.7,7,2.7c2.9,0,5.5-1,7.6-3.1c2.1-2.1,3.2-4.6,3.2-7.5    c0-3-1.1-5.5-3.2-7.6c-2.1-2.1-4.6-3.1-7.6-3.1c-3,0-5.5,1-7.6,3.1c-2.1,2.1-3.1,4.6-3.1,7.6V54.9z"></path>
		<path d="M215.4,12.2h13.2v50.7c0,0.2,0.2,0.6,0.7,1s0.8,0.7,1.1,0.7h5.4l0.1,13.2h-6.5c-0.8,0-1.8-0.2-3-0.5    c-5.2-1.6-8.6-4.8-10.3-9.9c-0.5-1.4-0.7-2.5-0.7-3.3V12.2z"></path>
	</g>
	<g>
		<path class="st7" d="M265.3,63.7c-2.5,0-4.7-0.9-6.5-2.4l29.6-12.2l0.9-0.3l-0.3-1.4l-0.6-2.2l-0.5-1.5l-0.1-0.1    c-0.2-0.4-0.4-0.8-0.5-1.2l0,0l-0.7-1.3l-0.8-1.4l-0.2,0.1c-2-3.2-4.6-5.9-7.9-7.8c-3.8-2.2-7.9-3.4-12.3-3.5    c-1.3,0-2.7,0.1-4.2,0.4c-5.7,1-10.5,3.8-14.3,8.3c-3.8,4.5-5.7,9.7-5.7,15.6c0,6.7,2.4,12.4,7.1,17.1c4.8,4.7,10.5,7.1,17.1,7.1    c5.5,0,10.6-1.8,15.3-5.4c0.1-0.1,0.3-0.2,0.6-0.5c1.8-1.8,3-3.1,3.6-3.9c1.6-2.4,2.7-4.2,3.1-5.4c0.3-0.9,0.5-1.6,0.7-2.2v-0.3    h-14.5C271.6,62.3,268.7,63.7,265.3,63.7z M265.4,42.1c2.6,0,5,1,7.3,3l-18,7.1c0.2-2.7,1.1-5,3-6.9    C259.7,43.2,262.3,42.1,265.4,42.1z"></path>
	</g>
</g>
<g>
	<g class="st6">
		<linearGradient id="SVGID_1_" gradientUnits="userSpaceOnUse" x1="-8.7563" y1="46.8716" x2="360.5718" y2="46.8716">
			<stop offset="0" style="stop-color:#683689"></stop>
			<stop offset="2.013695e-02" style="stop-color:#6D3689"></stop>
			<stop offset="0.149" style="stop-color:#863688"></stop>
			<stop offset="0.2922" style="stop-color:#9A3588"></stop>
			<stop offset="0.4553" style="stop-color:#A83587"></stop>
			<stop offset="0.6553" style="stop-color:#B13587"></stop>
			<stop offset="1" style="stop-color:#B33587"></stop>
		</linearGradient>
		<path class="st8" d="M37.9,42.7c0,4.7-1.3,9-4,12.8s-6.2,6.6-10.7,8.3c-2.3,0.9-4.6,1.3-6.7,1.3h-12v20.3H-8.8V38.5    c0-0.5,0.1-1.3,0.3-2.3c0.7-3.7,2.2-6.9,4.7-9.7c2.5-2.8,5.4-4.7,9-5.7C7.3,20.3,9,20,10.3,20h6.5c1.9,0,4,0.4,6.4,1.3    c4.5,1.7,8.1,4.5,10.8,8.4C36.5,33.5,37.9,37.9,37.9,42.7z M13.6,33.2c-2.3,0-4,0.1-4.9,0.4c-1.7,0.5-2.8,1.5-3.5,3    c-0.5,1.1-0.7,1.9-0.7,2.6v12.6h12.5c0.5,0,1.3-0.2,2.4-0.7c3.6-1.6,5.4-4.4,5.4-8.6c0-2.5-0.8-4.6-2.5-6.3    c-1.7-1.8-3.7-2.8-6.2-3H13.6z"></path>
		<linearGradient id="SVGID_2_" gradientUnits="userSpaceOnUse" x1="-8.7563" y1="46.8716" x2="360.5718" y2="46.8716">
			<stop offset="0" style="stop-color:#683689"></stop>
			<stop offset="2.013695e-02" style="stop-color:#6D3689"></stop>
			<stop offset="0.149" style="stop-color:#863688"></stop>
			<stop offset="0.2922" style="stop-color:#9A3588"></stop>
			<stop offset="0.4553" style="stop-color:#A83587"></stop>
			<stop offset="0.6553" style="stop-color:#B13587"></stop>
			<stop offset="1" style="stop-color:#B33587"></stop>
		</linearGradient>
		<path class="st9" d="M77.1,82.8c-3.6,1.7-7.2,2.6-10.8,2.6c-6.6,0-12.2-2.4-16.9-7.1s-7-10.4-7-17c0-6.7,2.3-12.3,7-17    c4.7-4.6,10.4-7,17-7c5,0,9.5,1.4,13.7,4.3c4.2,2.9,7.1,6.7,8.7,11.3c1,2.7,1.4,4.9,1.4,6.7v25.6H77.1V82.8z M55.6,61.4    c0,2.9,1.1,5.5,3.2,7.6c2.1,2.1,4.6,3.2,7.6,3.2c2.9,0,5.5-1.1,7.6-3.2c2.1-2.1,3.2-4.6,3.2-7.6c0-2.9-1-5.4-3.1-7.5    c-2.1-2.1-4.6-3.2-7.5-3.2c-2.9,0-5.5,1-7.6,3.1S55.6,58.4,55.6,61.4z"></path>
		<linearGradient id="SVGID_3_" gradientUnits="userSpaceOnUse" x1="-8.7563" y1="46.8716" x2="360.5718" y2="46.8716">
			<stop offset="0" style="stop-color:#683689"></stop>
			<stop offset="2.013695e-02" style="stop-color:#6D3689"></stop>
			<stop offset="0.149" style="stop-color:#863688"></stop>
			<stop offset="0.2922" style="stop-color:#9A3588"></stop>
			<stop offset="0.4553" style="stop-color:#A83587"></stop>
			<stop offset="0.6553" style="stop-color:#B13587"></stop>
			<stop offset="1" style="stop-color:#B33587"></stop>
		</linearGradient>
		<path class="st10" d="M115.4,37.4v13.2h-5c-0.8,0-1.3,0.3-1.7,0.9c-0.3,0.6-0.5,0.9-0.5,0.9v33.1H95V52.7c0-3.5,1.1-6.6,3.3-9.3    c2.2-2.7,5-4.6,8.4-5.6c1.1-0.3,2.1-0.4,3-0.4H115.4z"></path>
		<linearGradient id="SVGID_4_" gradientUnits="userSpaceOnUse" x1="-8.7563" y1="46.8716" x2="360.5718" y2="46.8716">
			<stop offset="0" style="stop-color:#683689"></stop>
			<stop offset="2.013695e-02" style="stop-color:#6D3689"></stop>
			<stop offset="0.149" style="stop-color:#863688"></stop>
			<stop offset="0.2922" style="stop-color:#9A3588"></stop>
			<stop offset="0.4553" style="stop-color:#A83587"></stop>
			<stop offset="0.6553" style="stop-color:#B13587"></stop>
			<stop offset="1" style="stop-color:#B33587"></stop>
		</linearGradient>
		<path class="st11" d="M120.1,61.4c0-6.6,2.3-12.2,7-16.9c4.7-4.7,10.3-7.1,16.9-7.1c9.1,0,16,4.1,20.9,12.3    c0.2,0.4,0.7,1.2,1.3,2.4c0.8,1.8,1.8,3.9,2.9,6.3c0,0.1,0,0.1,0.1,0.3v0.1c0,0.1,0,0.1-0.1,0.1l-29,12.3c0.8,0.5,2.1,0.8,3.9,0.8    c3.3,0,6.2-1.4,8.7-4.1h14.4v0.1c-0.2,1.3-0.9,2.9-1.9,4.7c-4.8,8.4-12,12.6-21.4,12.6c-6.5,0-12.1-2.3-16.7-7    C122.4,73.5,120.1,67.9,120.1,61.4z M144.1,50.6c-4.7,0-7.9,2-9.8,6.1c-0.6,1.3-0.9,2.3-0.9,3h0.1l16.7-7c-0.1-0.2-0.4-0.4-1-0.8    C147.6,51,145.9,50.6,144.1,50.6z"></path>
		<linearGradient id="SVGID_5_" gradientUnits="userSpaceOnUse" x1="-8.7563" y1="46.8716" x2="360.5718" y2="46.8716">
			<stop offset="0" style="stop-color:#683689"></stop>
			<stop offset="2.013695e-02" style="stop-color:#6D3689"></stop>
			<stop offset="0.149" style="stop-color:#863688"></stop>
			<stop offset="0.2922" style="stop-color:#9A3588"></stop>
			<stop offset="0.4553" style="stop-color:#A83587"></stop>
			<stop offset="0.6553" style="stop-color:#B13587"></stop>
			<stop offset="1" style="stop-color:#B33587"></stop>
		</linearGradient>
		<path class="st12" d="M196.9,37.4c4.7,0,9,1.3,12.9,3.8c3.9,2.6,6.7,6,8.6,10.3c1.3,2.9,1.9,5.5,1.9,7.6v26.2h-13.2V59.9    c0-0.6-0.1-1.1-0.4-1.6c-0.6-2.2-1.8-4-3.5-5.5c-1.8-1.4-3.8-2.1-6.1-2.1c-2.3,0-4.3,0.7-6,2.1c-1.7,1.4-2.9,3.2-3.6,5.4    c-0.1,0.4-0.2,0.6-0.2,0.7c0,0-0.1,0.6-0.2,1.6v25h-13.2V59.6c0-0.7,0.1-1.5,0.3-2.6c0.9-5.5,3.5-10.2,7.9-14    C186.4,39.3,191.4,37.4,196.9,37.4z"></path>
		<linearGradient id="SVGID_6_" gradientUnits="userSpaceOnUse" x1="-8.7563" y1="46.8716" x2="360.5718" y2="46.8716">
			<stop offset="0" style="stop-color:#683689"></stop>
			<stop offset="2.013695e-02" style="stop-color:#6D3689"></stop>
			<stop offset="0.149" style="stop-color:#863688"></stop>
			<stop offset="0.2922" style="stop-color:#9A3588"></stop>
			<stop offset="0.4553" style="stop-color:#A83587"></stop>
			<stop offset="0.6553" style="stop-color:#B13587"></stop>
			<stop offset="1" style="stop-color:#B33587"></stop>
		</linearGradient>
		<path class="st13" d="M224.9,20.2h13.2V37h6.5v13.3h-6.5v19.8c0,0.4,0.2,0.9,0.6,1.3c0.4,0.5,0.8,0.7,1.3,0.7h5.4v13.3h-6.3    c-0.8,0-1.9-0.2-3-0.5c-5.4-1.6-9-5.2-10.6-10.7c-0.4-1.3-0.5-2.4-0.5-3.4V20.2z"></path>
		<linearGradient id="SVGID_7_" gradientUnits="userSpaceOnUse" x1="-8.7563" y1="46.8716" x2="360.5718" y2="46.8716">
			<stop offset="0" style="stop-color:#683689"></stop>
			<stop offset="2.013695e-02" style="stop-color:#6D3689"></stop>
			<stop offset="0.149" style="stop-color:#863688"></stop>
			<stop offset="0.2922" style="stop-color:#9A3588"></stop>
			<stop offset="0.4553" style="stop-color:#A83587"></stop>
			<stop offset="0.6553" style="stop-color:#B13587"></stop>
			<stop offset="1" style="stop-color:#B33587"></stop>
		</linearGradient>
		<path class="st14" d="M250,61.4c0-6.6,2.3-12.2,7-16.9c4.7-4.7,10.3-7.1,16.9-7.1c9.1,0,16,4.1,20.9,12.3c0.2,0.4,0.7,1.2,1.3,2.4    c0.8,1.8,1.8,3.9,2.9,6.3c0,0.1,0,0.1,0.1,0.3v0.1c0,0.1,0,0.1-0.1,0.1l-29,12.3c0.8,0.5,2.1,0.8,3.9,0.8c3.3,0,6.2-1.4,8.7-4.1    H297v0.1c-0.2,1.3-0.9,2.9-1.9,4.7c-4.8,8.4-12,12.6-21.4,12.6c-6.5,0-12.1-2.3-16.7-7C252.3,73.5,250,67.9,250,61.4z M274,50.6    c-4.7,0-7.9,2-9.8,6.1c-0.6,1.3-0.9,2.3-0.9,3h0.1l16.7-7c-0.1-0.2-0.4-0.4-1-0.8C277.5,51,275.8,50.6,274,50.6z"></path>
		<linearGradient id="SVGID_8_" gradientUnits="userSpaceOnUse" x1="-8.7563" y1="46.8716" x2="360.5718" y2="46.8716">
			<stop offset="0" style="stop-color:#683689"></stop>
			<stop offset="2.013695e-02" style="stop-color:#6D3689"></stop>
			<stop offset="0.149" style="stop-color:#863688"></stop>
			<stop offset="0.2922" style="stop-color:#9A3588"></stop>
			<stop offset="0.4553" style="stop-color:#A83587"></stop>
			<stop offset="0.6553" style="stop-color:#B13587"></stop>
			<stop offset="1" style="stop-color:#B33587"></stop>
		</linearGradient>
		<path class="st15" d="M303.6,69.6l36.7-36.3h-36.7V20l52.8,0.1c0,0.1,0,0.1,0.1,0.3v15.3l-36.9,36.4h36.9v13.3h-52.9V69.6z"></path>
	</g>
	<g class="st6">
		<linearGradient id="SVGID_9_" gradientUnits="userSpaceOnUse" x1="-8.7563" y1="46.8716" x2="360.5718" y2="46.8716">
			<stop offset="0" style="stop-color:#683689"></stop>
			<stop offset="2.013695e-02" style="stop-color:#6D3689"></stop>
			<stop offset="0.149" style="stop-color:#863688"></stop>
			<stop offset="0.2922" style="stop-color:#9A3588"></stop>
			<stop offset="0.4553" style="stop-color:#A83587"></stop>
			<stop offset="0.6553" style="stop-color:#B13587"></stop>
			<stop offset="1" style="stop-color:#B33587"></stop>
		</linearGradient>
		<path class="st16" d="M41.9,31.1c0,4.7-1.3,9-4,12.8s-6.2,6.6-10.7,8.3c-2.3,0.9-4.6,1.3-6.7,1.3h-12v20.3H-4.7V26.9    c0-0.5,0.1-1.3,0.3-2.3c0.7-3.7,2.2-6.9,4.7-9.7c2.5-2.8,5.4-4.7,9-5.7c2.2-0.6,3.9-0.9,5.1-0.9h6.5c1.9,0,4,0.4,6.4,1.3    c4.5,1.7,8.1,4.5,10.8,8.4C40.6,21.9,41.9,26.2,41.9,31.1z M17.6,21.6c-2.3,0-4,0.1-4.9,0.4c-1.7,0.5-2.8,1.5-3.5,3    c-0.5,1.1-0.7,1.9-0.7,2.6v12.6h12.5c0.5,0,1.3-0.2,2.4-0.7c3.6-1.6,5.4-4.4,5.4-8.6c0-2.5-0.8-4.6-2.5-6.3    c-1.7-1.8-3.7-2.8-6.2-3H17.6z"></path>
		<linearGradient id="SVGID_10_" gradientUnits="userSpaceOnUse" x1="-8.7563" y1="46.8716" x2="360.5718" y2="46.8716">
			<stop offset="0" style="stop-color:#683689"></stop>
			<stop offset="2.013695e-02" style="stop-color:#6D3689"></stop>
			<stop offset="0.149" style="stop-color:#863688"></stop>
			<stop offset="0.2922" style="stop-color:#9A3588"></stop>
			<stop offset="0.4553" style="stop-color:#A83587"></stop>
			<stop offset="0.6553" style="stop-color:#B13587"></stop>
			<stop offset="1" style="stop-color:#B33587"></stop>
		</linearGradient>
		<path class="st17" d="M81.2,71.2c-3.6,1.7-7.2,2.6-10.8,2.6c-6.6,0-12.2-2.4-16.9-7.1c-4.7-4.7-7-10.4-7-17c0-6.7,2.3-12.3,7-17    c4.7-4.6,10.4-7,17-7c5,0,9.5,1.4,13.7,4.3c4.2,2.9,7.1,6.7,8.7,11.3c1,2.7,1.4,4.9,1.4,6.7v25.6H81.2V71.2z M59.7,49.8    c0,2.9,1.1,5.5,3.2,7.6c2.1,2.1,4.6,3.2,7.6,3.2c2.9,0,5.5-1.1,7.6-3.2c2.1-2.1,3.2-4.6,3.2-7.6c0-2.9-1-5.4-3.1-7.5    c-2.1-2.1-4.6-3.2-7.5-3.2c-2.9,0-5.5,1-7.6,3.1S59.7,46.8,59.7,49.8z"></path>
		<linearGradient id="SVGID_11_" gradientUnits="userSpaceOnUse" x1="-8.7563" y1="46.8716" x2="360.5718" y2="46.8716">
			<stop offset="0" style="stop-color:#683689"></stop>
			<stop offset="2.013695e-02" style="stop-color:#6D3689"></stop>
			<stop offset="0.149" style="stop-color:#863688"></stop>
			<stop offset="0.2922" style="stop-color:#9A3588"></stop>
			<stop offset="0.4553" style="stop-color:#A83587"></stop>
			<stop offset="0.6553" style="stop-color:#B13587"></stop>
			<stop offset="1" style="stop-color:#B33587"></stop>
		</linearGradient>
		<path class="st18" d="M119.5,25.7v13.2h-5c-0.8,0-1.3,0.3-1.7,0.9c-0.3,0.6-0.5,0.9-0.5,0.9v33.1H99V41.1c0-3.5,1.1-6.6,3.3-9.3    c2.2-2.7,5-4.6,8.4-5.6c1.1-0.3,2.1-0.4,3-0.4H119.5z"></path>
		<linearGradient id="SVGID_12_" gradientUnits="userSpaceOnUse" x1="-8.7563" y1="46.8716" x2="360.5718" y2="46.8716">
			<stop offset="0" style="stop-color:#683689"></stop>
			<stop offset="2.013695e-02" style="stop-color:#6D3689"></stop>
			<stop offset="0.149" style="stop-color:#863688"></stop>
			<stop offset="0.2922" style="stop-color:#9A3588"></stop>
			<stop offset="0.4553" style="stop-color:#A83587"></stop>
			<stop offset="0.6553" style="stop-color:#B13587"></stop>
			<stop offset="1" style="stop-color:#B33587"></stop>
		</linearGradient>
		<path class="st19" d="M124.1,49.8c0-6.6,2.3-12.2,7-16.9c4.7-4.7,10.3-7.1,16.9-7.1c9.1,0,16,4.1,20.9,12.3    c0.2,0.4,0.7,1.2,1.3,2.4c0.8,1.8,1.8,3.9,2.9,6.3c0,0.1,0,0.1,0.1,0.3v0.1c0,0.1,0,0.1-0.1,0.1l-29,12.3c0.8,0.5,2.1,0.8,3.9,0.8    c3.3,0,6.2-1.4,8.7-4.1h14.4v0.1c-0.2,1.3-0.9,2.9-1.9,4.7c-4.8,8.4-12,12.6-21.4,12.6c-6.5,0-12.1-2.3-16.7-7    C126.4,61.9,124.1,56.3,124.1,49.8z M148.2,39c-4.7,0-7.9,2-9.8,6.1c-0.6,1.3-0.9,2.3-0.9,3h0.1l16.7-7c-0.1-0.2-0.4-0.4-1-0.8    C151.7,39.4,150,39,148.2,39z"></path>
		<linearGradient id="SVGID_13_" gradientUnits="userSpaceOnUse" x1="-8.7563" y1="46.8716" x2="360.5718" y2="46.8716">
			<stop offset="0" style="stop-color:#683689"></stop>
			<stop offset="2.013695e-02" style="stop-color:#6D3689"></stop>
			<stop offset="0.149" style="stop-color:#863688"></stop>
			<stop offset="0.2922" style="stop-color:#9A3588"></stop>
			<stop offset="0.4553" style="stop-color:#A83587"></stop>
			<stop offset="0.6553" style="stop-color:#B13587"></stop>
			<stop offset="1" style="stop-color:#B33587"></stop>
		</linearGradient>
		<path class="st20" d="M201,25.8c4.7,0,9,1.3,12.9,3.8c3.9,2.6,6.7,6,8.6,10.3c1.3,2.9,1.9,5.5,1.9,7.6v26.2h-13.2V48.3    c0-0.6-0.1-1.1-0.4-1.6c-0.6-2.2-1.8-4-3.5-5.5c-1.8-1.4-3.8-2.1-6.1-2.1c-2.3,0-4.3,0.7-6,2.1c-1.7,1.4-2.9,3.2-3.6,5.4    c-0.1,0.4-0.2,0.6-0.2,0.7c0,0-0.1,0.6-0.2,1.6v25h-13.2V48c0-0.7,0.1-1.5,0.3-2.6c0.9-5.5,3.5-10.2,7.9-14    C190.4,27.7,195.4,25.8,201,25.8z"></path>
		<linearGradient id="SVGID_14_" gradientUnits="userSpaceOnUse" x1="-8.7563" y1="46.8716" x2="360.5718" y2="46.8716">
			<stop offset="0" style="stop-color:#683689"></stop>
			<stop offset="2.013695e-02" style="stop-color:#6D3689"></stop>
			<stop offset="0.149" style="stop-color:#863688"></stop>
			<stop offset="0.2922" style="stop-color:#9A3588"></stop>
			<stop offset="0.4553" style="stop-color:#A83587"></stop>
			<stop offset="0.6553" style="stop-color:#B13587"></stop>
			<stop offset="1" style="stop-color:#B33587"></stop>
		</linearGradient>
		<path class="st21" d="M228.9,8.6h13.2v16.8h6.5v13.3h-6.5v19.8c0,0.4,0.2,0.9,0.6,1.3c0.4,0.5,0.8,0.7,1.3,0.7h5.4v13.3h-6.3    c-0.8,0-1.9-0.2-3-0.5c-5.4-1.6-9-5.2-10.6-10.7c-0.4-1.3-0.5-2.4-0.5-3.4V8.6z"></path>
		<linearGradient id="SVGID_15_" gradientUnits="userSpaceOnUse" x1="-8.7563" y1="46.8716" x2="360.5718" y2="46.8716">
			<stop offset="0" style="stop-color:#683689"></stop>
			<stop offset="2.013695e-02" style="stop-color:#6D3689"></stop>
			<stop offset="0.149" style="stop-color:#863688"></stop>
			<stop offset="0.2922" style="stop-color:#9A3588"></stop>
			<stop offset="0.4553" style="stop-color:#A83587"></stop>
			<stop offset="0.6553" style="stop-color:#B13587"></stop>
			<stop offset="1" style="stop-color:#B33587"></stop>
		</linearGradient>
		<path class="st22" d="M254.1,49.8c0-6.6,2.3-12.2,7-16.9c4.7-4.7,10.3-7.1,16.9-7.1c9.1,0,16,4.1,20.9,12.3    c0.2,0.4,0.7,1.2,1.3,2.4c0.8,1.8,1.8,3.9,2.9,6.3c0,0.1,0,0.1,0.1,0.3v0.1c0,0.1,0,0.1-0.1,0.1l-29,12.3c0.8,0.5,2.1,0.8,3.9,0.8    c3.3,0,6.2-1.4,8.7-4.1H301v0.1c-0.2,1.3-0.9,2.9-1.9,4.7c-4.8,8.4-12,12.6-21.4,12.6c-6.5,0-12.1-2.3-16.7-7    C256.4,61.9,254.1,56.3,254.1,49.8z M278.1,39c-4.7,0-7.9,2-9.8,6.1c-0.6,1.3-0.9,2.3-0.9,3h0.1l16.7-7c-0.1-0.2-0.4-0.4-1-0.8    C281.6,39.4,279.9,39,278.1,39z"></path>
		<linearGradient id="SVGID_16_" gradientUnits="userSpaceOnUse" x1="-8.7563" y1="46.8716" x2="360.5718" y2="46.8716">
			<stop offset="0" style="stop-color:#683689"></stop>
			<stop offset="2.013695e-02" style="stop-color:#6D3689"></stop>
			<stop offset="0.149" style="stop-color:#863688"></stop>
			<stop offset="0.2922" style="stop-color:#9A3588"></stop>
			<stop offset="0.4553" style="stop-color:#A83587"></stop>
			<stop offset="0.6553" style="stop-color:#B13587"></stop>
			<stop offset="1" style="stop-color:#B33587"></stop>
		</linearGradient>
		<path class="st23" d="M307.7,57.9l36.7-36.3h-36.7V8.4l52.8,0.1c0,0.1,0,0.1,0.1,0.3v15.3l-36.9,36.4h36.9v13.3h-52.9V57.9z"></path>
	</g>
	<g>
		<linearGradient id="SVGID_17_" gradientUnits="userSpaceOnUse" x1="-8.7563" y1="46.8716" x2="360.5718" y2="46.8716">
			<stop offset="0" style="stop-color:#683689"></stop>
			<stop offset="2.013695e-02" style="stop-color:#6D3689"></stop>
			<stop offset="0.149" style="stop-color:#863688"></stop>
			<stop offset="0.2922" style="stop-color:#9A3588"></stop>
			<stop offset="0.4553" style="stop-color:#A83587"></stop>
			<stop offset="0.6553" style="stop-color:#B13587"></stop>
			<stop offset="1" style="stop-color:#B33587"></stop>
		</linearGradient>
		<path class="st24" d="M2.2,11.9h13.2v26.4h24.8V11.9h13.2v65.7H40.2V51.5H15.3v26.1H2.2V11.9z"></path>
		<linearGradient id="SVGID_18_" gradientUnits="userSpaceOnUse" x1="-8.7563" y1="46.8716" x2="360.5718" y2="46.8716">
			<stop offset="0" style="stop-color:#683689"></stop>
			<stop offset="2.013695e-02" style="stop-color:#6D3689"></stop>
			<stop offset="0.149" style="stop-color:#863688"></stop>
			<stop offset="0.2922" style="stop-color:#9A3588"></stop>
			<stop offset="0.4553" style="stop-color:#A83587"></stop>
			<stop offset="0.6553" style="stop-color:#B13587"></stop>
			<stop offset="1" style="stop-color:#B33587"></stop>
		</linearGradient>
		<path class="st25" d="M92.6,75c-3.6,1.7-7.2,2.6-10.8,2.6c-6.6,0-12.2-2.4-16.9-7.1c-4.7-4.7-7-10.4-7-17c0-6.7,2.3-12.3,7-17    c4.7-4.6,10.4-7,17-7c5,0,9.5,1.4,13.7,4.3c4.2,2.9,7.1,6.7,8.7,11.3c1,2.7,1.4,4.9,1.4,6.7v25.6H92.6V75z M71.1,53.6    c0,2.9,1.1,5.5,3.2,7.6c2.1,2.1,4.6,3.2,7.6,3.2c2.9,0,5.5-1.1,7.6-3.2c2.1-2.1,3.2-4.6,3.2-7.6c0-2.9-1-5.4-3.1-7.5    c-2.1-2.1-4.6-3.2-7.5-3.2c-2.9,0-5.5,1-7.6,3.1S71.1,50.6,71.1,53.6z"></path>
		<linearGradient id="SVGID_19_" gradientUnits="userSpaceOnUse" x1="-8.7563" y1="46.8716" x2="360.5718" y2="46.8716">
			<stop offset="0" style="stop-color:#683689"></stop>
			<stop offset="2.013695e-02" style="stop-color:#6D3689"></stop>
			<stop offset="0.149" style="stop-color:#863688"></stop>
			<stop offset="0.2922" style="stop-color:#9A3588"></stop>
			<stop offset="0.4553" style="stop-color:#A83587"></stop>
			<stop offset="0.6553" style="stop-color:#B13587"></stop>
			<stop offset="1" style="stop-color:#B33587"></stop>
		</linearGradient>
		<path class="st26" d="M110.4,12.5h13.2v19.5c3.7-1.7,7.3-2.5,10.8-2.5c6.7,0,12.4,2.3,17,7c4.6,4.7,6.9,10.3,6.9,17    c0,6.6-2.3,12.3-7,16.9c-4.7,4.6-10.4,7-17,7c-5.3,0-10.1-1.6-14.4-4.9c-4.3-3.3-7.2-7.5-8.6-12.6c-0.1-0.6-0.3-1.3-0.4-2.1    c-0.2-1.7-0.4-2.6-0.4-2.9V12.5z M123.6,54.9c0.4,2.6,1.6,4.8,3.6,6.6c2.1,1.8,4.4,2.7,7,2.7c2.9,0,5.5-1,7.6-3.1    c2.1-2.1,3.2-4.6,3.2-7.5c0-3-1.1-5.5-3.2-7.6c-2.1-2.1-4.6-3.1-7.6-3.1c-3,0-5.5,1-7.6,3.1c-2.1,2.1-3.1,4.6-3.1,7.6V54.9z"></path>
		<linearGradient id="SVGID_20_" gradientUnits="userSpaceOnUse" x1="-8.7563" y1="46.8716" x2="360.5718" y2="46.8716">
			<stop offset="0" style="stop-color:#683689"></stop>
			<stop offset="2.013695e-02" style="stop-color:#6D3689"></stop>
			<stop offset="0.149" style="stop-color:#863688"></stop>
			<stop offset="0.2922" style="stop-color:#9A3588"></stop>
			<stop offset="0.4553" style="stop-color:#A83587"></stop>
			<stop offset="0.6553" style="stop-color:#B13587"></stop>
			<stop offset="1" style="stop-color:#B33587"></stop>
		</linearGradient>
		<path class="st27" d="M162.8,12.5H176v19.5c3.7-1.7,7.3-2.5,10.8-2.5c6.7,0,12.4,2.3,17,7c4.6,4.7,6.9,10.3,6.9,17    c0,6.6-2.3,12.3-7,16.9c-4.7,4.6-10.4,7-17,7c-5.3,0-10.1-1.6-14.4-4.9c-4.3-3.3-7.2-7.5-8.6-12.6c-0.1-0.6-0.3-1.3-0.4-2.1    c-0.2-1.7-0.4-2.6-0.4-2.9V12.5z M176.1,54.9c0.4,2.6,1.6,4.8,3.6,6.6c2.1,1.8,4.4,2.7,7,2.7c2.9,0,5.5-1,7.6-3.1    c2.1-2.1,3.2-4.6,3.2-7.5c0-3-1.1-5.5-3.2-7.6c-2.1-2.1-4.6-3.1-7.6-3.1c-3,0-5.5,1-7.6,3.1c-2.1,2.1-3.1,4.6-3.1,7.6V54.9z"></path>
		<linearGradient id="SVGID_21_" gradientUnits="userSpaceOnUse" x1="-8.7563" y1="46.8716" x2="360.5718" y2="46.8716">
			<stop offset="0" style="stop-color:#683689"></stop>
			<stop offset="2.013695e-02" style="stop-color:#6D3689"></stop>
			<stop offset="0.149" style="stop-color:#863688"></stop>
			<stop offset="0.2922" style="stop-color:#9A3588"></stop>
			<stop offset="0.4553" style="stop-color:#A83587"></stop>
			<stop offset="0.6553" style="stop-color:#B13587"></stop>
			<stop offset="1" style="stop-color:#B33587"></stop>
		</linearGradient>
		<path class="st28" d="M215.4,12.2h13.2v50.7c0,0.2,0.2,0.6,0.7,1s0.8,0.7,1.1,0.7h5.4l0.1,13.2h-6.5c-0.8,0-1.8-0.2-3-0.5    c-5.2-1.6-8.6-4.8-10.3-9.9c-0.5-1.4-0.7-2.5-0.7-3.3V12.2z"></path>
	</g>
	<g>
		<linearGradient id="SVGID_22_" gradientUnits="userSpaceOnUse" x1="-8.7563" y1="46.8716" x2="360.5718" y2="46.8716">
			<stop offset="0" style="stop-color:#683689"></stop>
			<stop offset="2.013695e-02" style="stop-color:#6D3689"></stop>
			<stop offset="0.149" style="stop-color:#863688"></stop>
			<stop offset="0.2922" style="stop-color:#9A3588"></stop>
			<stop offset="0.4553" style="stop-color:#A83587"></stop>
			<stop offset="0.6553" style="stop-color:#B13587"></stop>
			<stop offset="1" style="stop-color:#B33587"></stop>
		</linearGradient>
		<path class="st29" d="M265.3,63.7c-2.5,0-4.7-0.9-6.5-2.4l29.6-12.2l0.9-0.3l-0.3-1.4l-0.6-2.2l-0.5-1.5l-0.1-0.1    c-0.2-0.4-0.4-0.8-0.5-1.2l0,0l-0.7-1.3l-0.8-1.4l-0.2,0.1c-2-3.2-4.6-5.9-7.9-7.8c-3.8-2.2-7.9-3.4-12.3-3.5    c-1.3,0-2.7,0.1-4.2,0.4c-5.7,1-10.5,3.8-14.3,8.3c-3.8,4.5-5.7,9.7-5.7,15.6c0,6.7,2.4,12.4,7.1,17.1c4.8,4.7,10.5,7.1,17.1,7.1    c5.5,0,10.6-1.8,15.3-5.4c0.1-0.1,0.3-0.2,0.6-0.5c1.8-1.8,3-3.1,3.6-3.9c1.6-2.4,2.7-4.2,3.1-5.4c0.3-0.9,0.5-1.6,0.7-2.2v-0.3    h-14.5C271.6,62.3,268.7,63.7,265.3,63.7z M265.4,42.1c2.6,0,5,1,7.3,3l-18,7.1c0.2-2.7,1.1-5,3-6.9    C259.7,43.2,262.3,42.1,265.4,42.1z"></path>
	</g>
</g>
</svg>