<svg xmlns="http://www.w3.org/2000/svg" xmlns:xlink="http://www.w3.org/1999/xlink" version="1.1" id="Calque_1" x="0px" y="0px" viewBox="0 0 291.9 97.6" style="enable-background:new 0 0 291.9 97.6;" xml:space="preserve" class="style-svg replaced-svg svg-replaced-0">
<style type="text/css">
	.st0{display:none;enable-background:new    ;}
	.st1{display:inline;}
	.st2{font-family:'TXTGroovySmooth';}
	.st3{font-size:89.6651px;}
	.st4{letter-spacing:1;}
	.st5{display:inline;fill:#FFFFFF;}
	.st6{display:none;}
	.st7{display:fill:#FFFFFF;}
	
</style>
<g>
	<text transform="matrix(1 0 0 1 -10.9082 85.4105)" class="st0"><tspan x="0" y="0" class="st1 st2 st3 st4">Parent</tspan><tspan x="258.7" y="0" class="st5 st2 st3 st4">e</tspan><tspan x="312.4" y="0" class="st1 st2 st3 st4">Z</tspan></text>
	<text transform="matrix(1 0 0 1 -6.8694 73.7879)" class="st6 st2 st3 st4">ParenteZ</text>
	<g>
		<path class="st5" d="M2.2,11.9h13.2v26.4h24.8V11.9h13.2v65.7H40.2V51.5H15.3v26.1H2.2V11.9z"></path>
		<path class="st5" d="M92.6,75c-3.6,1.7-7.2,2.6-10.8,2.6c-6.6,0-12.2-2.4-16.9-7.1c-4.7-4.7-7-10.4-7-17c0-6.7,2.3-12.3,7-17    c4.7-4.6,10.4-7,17-7c5,0,9.5,1.4,13.7,4.3c4.2,2.9,7.1,6.7,8.7,11.3c1,2.7,1.4,4.9,1.4,6.7v25.6H92.6V75z M71.1,53.6    c0,2.9,1.1,5.5,3.2,7.6c2.1,2.1,4.6,3.2,7.6,3.2c2.9,0,5.5-1.1,7.6-3.2c2.1-2.1,3.2-4.6,3.2-7.6c0-2.9-1-5.4-3.1-7.5    c-2.1-2.1-4.6-3.2-7.5-3.2c-2.9,0-5.5,1-7.6,3.1S71.1,50.6,71.1,53.6z"></path>
		<path class="st5" d="M110.4,12.5h13.2v19.5c3.7-1.7,7.3-2.5,10.8-2.5c6.7,0,12.4,2.3,17,7c4.6,4.7,6.9,10.3,6.9,17c0,6.6-2.3,12.3-7,16.9    c-4.7,4.6-10.4,7-17,7c-5.3,0-10.1-1.6-14.4-4.9c-4.3-3.3-7.2-7.5-8.6-12.6c-0.1-0.6-0.3-1.3-0.4-2.1c-0.2-1.7-0.4-2.6-0.4-2.9    V12.5z M123.6,54.9c0.4,2.6,1.6,4.8,3.6,6.6c2.1,1.8,4.4,2.7,7,2.7c2.9,0,5.5-1,7.6-3.1c2.1-2.1,3.2-4.6,3.2-7.5    c0-3-1.1-5.5-3.2-7.6c-2.1-2.1-4.6-3.1-7.6-3.1c-3,0-5.5,1-7.6,3.1c-2.1,2.1-3.1,4.6-3.1,7.6V54.9z"></path>
		<path class="st5" d="M162.8,12.5H176v19.5c3.7-1.7,7.3-2.5,10.8-2.5c6.7,0,12.4,2.3,17,7c4.6,4.7,6.9,10.3,6.9,17c0,6.6-2.3,12.3-7,16.9    c-4.7,4.6-10.4,7-17,7c-5.3,0-10.1-1.6-14.4-4.9c-4.3-3.3-7.2-7.5-8.6-12.6c-0.1-0.6-0.3-1.3-0.4-2.1c-0.2-1.7-0.4-2.6-0.4-2.9    V12.5z M176.1,54.9c0.4,2.6,1.6,4.8,3.6,6.6c2.1,1.8,4.4,2.7,7,2.7c2.9,0,5.5-1,7.6-3.1c2.1-2.1,3.2-4.6,3.2-7.5    c0-3-1.1-5.5-3.2-7.6c-2.1-2.1-4.6-3.1-7.6-3.1c-3,0-5.5,1-7.6,3.1c-2.1,2.1-3.1,4.6-3.1,7.6V54.9z"></path>
		<path class="st5" d="M215.4,12.2h13.2v50.7c0,0.2,0.2,0.6,0.7,1s0.8,0.7,1.1,0.7h5.4l0.1,13.2h-6.5c-0.8,0-1.8-0.2-3-0.5    c-5.2-1.6-8.6-4.8-10.3-9.9c-0.5-1.4-0.7-2.5-0.7-3.3V12.2z"></path>
		<path class="st5" d="M265.3,63.7c-2.5,0-4.7-0.9-6.5-2.4l29.6-12.2l0.9-0.3l-0.3-1.4l-0.6-2.2l-0.5-1.5l-0.1-0.1    c-0.2-0.4-0.4-0.8-0.5-1.2l0,0l-0.7-1.3l-0.8-1.4l-0.2,0.1c-2-3.2-4.6-5.9-7.9-7.8c-3.8-2.2-7.9-3.4-12.3-3.5    c-1.3,0-2.7,0.1-4.2,0.4c-5.7,1-10.5,3.8-14.3,8.3c-3.8,4.5-5.7,9.7-5.7,15.6c0,6.7,2.4,12.4,7.1,17.1c4.8,4.7,10.5,7.1,17.1,7.1    c5.5,0,10.6-1.8,15.3-5.4c0.1-0.1,0.3-0.2,0.6-0.5c1.8-1.8,3-3.1,3.6-3.9c1.6-2.4,2.7-4.2,3.1-5.4c0.3-0.9,0.5-1.6,0.7-2.2v-0.3    h-14.5C271.6,62.3,268.7,63.7,265.3,63.7z M265.4,42.1c2.6,0,5,1,7.3,3l-18,7.1c0.2-2.7,1.1-5,3-6.9    C259.7,43.2,262.3,42.1,265.4,42.1z"></path>
	</g>
</g>
</svg>