<?xml version="1.0" encoding="utf-8"?>
<!-- Generator: Adobe Illustrator 19.0.0, SVG Export Plug-In . SVG Version: 6.00 Build 0)  -->
<svg version="1.1"
	 id="Calque_1" xmlns:sodipodi="http://sodipodi.sourceforge.net/DTD/sodipodi-0.dtd" xmlns:inkscape="http://www.inkscape.org/namespaces/inkscape" xmlns:svg="http://www.w3.org/2000/svg" xmlns:dc="http://purl.org/dc/elements/1.1/" xmlns:rdf="http://www.w3.org/1999/02/22-rdf-syntax-ns#" xmlns:cc="http://creativecommons.org/ns#"
	 xmlns="http://www.w3.org/2000/svg" xmlns:xlink="http://www.w3.org/1999/xlink" x="0px" y="0px" viewBox="-305 300 92 96"
	 style="enable-background:new -305 300 92 96;" xml:space="preserve">
<g transform="translate(0,-952.36218)">
	<path d="M-237.2,1252.4l-0.9,1.5c-0.4,0.6-1,1-1.7,1c-0.7,0-1.3,0.1-2,0.3c-0.7,0.2-1.4,0-1.9-0.5l-1.3-1.2l-0.5,0.3l0.4,1.7
		c0.2,0.7,0,1.4-0.5,1.9c-0.4,0.4-0.8,1-1.3,1.6c-0.4,0.6-1,0.9-1.7,0.9l-1.8,0l-0.2,0.6l1.5,0.9c0.6,0.4,1,1,1,1.7
		c0,0.7,0.1,1.4,0.3,2c0.2,0.7,0,1.4-0.5,1.9l-1.3,1.3l0.3,0.5l1.7-0.4c0.7-0.2,1.4,0,1.9,0.5c0.5,0.5,1,0.9,1.6,1.2
		c0.6,0.4,1,1,1,1.7l0,1.7l0.6,0.2l0.9-1.5c0.4-0.6,1-1,1.7-1c0.7,0,1.4-0.1,2-0.2c0.7-0.2,1.4,0,1.9,0.5l1.3,1.2l0.5-0.3l-0.4-1.7
		c-0.2-0.7,0-1.4,0.5-1.9c0.5-0.5,0.9-1,1.2-1.6c0.3-0.6,1-1,1.7-1l1.8,0l0.2-0.6l-1.5-0.9c-0.6-0.3-1-1-1-1.7c0-0.7-0.1-1.3-0.3-2
		c-0.2-0.6,0-1.4,0.5-1.8l1.2-1.3l-0.3-0.5l-1.7,0.4c-0.7,0.2-1.4,0-1.9-0.5c-0.4-0.4-1-0.9-1.6-1.2c-0.6-0.4-0.9-1-0.9-1.7l0-1.7
		C-236.8,1252.5-237,1252.4-237.2,1252.4L-237.2,1252.4z M-239.8,1257c3.3,0,6,2.7,6,6c0,3.3-2.7,6-6,6s-6-2.7-6-6
		C-245.8,1259.7-243.1,1257-239.8,1257z M-260.9,1258.4c1.9,0,3.8,0.1,5.6,0.4l-0.5,1.8c-0.2,0.7-0.1,1.6,0.3,2.2
		c-1.7-0.3-3.5-0.5-5.4-0.5c-11.2,0-20,2.5-25.5,7.6c-5.5,5-8.1,12.7-6.6,24.2c0.1,0.5-0.1,1-0.3,1.4c-2.7,3.7-5.6,8.4-7,11.7
		c0.7,0.1,1.6,0.1,2.3,0.1c1.1,0,2,1,2,2.1c-0.1,3-0.1,4.1,0,6.7l0.9,0.5c0.7,0.3,1.1,1,1.1,1.8c-0.1,3.5,0.7,7.1,1.6,10.1
		c5.2,0.6,10.1-1.1,15.1-1c0.8,0,1.6,0.7,1.9,1.5c1.5,5.4,1.3,10.1,0.6,15.4h33.1c-3.1-8.1-4.8-15.7-5-25.8c0-0.5,0.2-1,0.6-1.4
		c4.1-4.2,8-8.1,10.5-13.5c0.7,0.4,1.5,0.5,2.3,0.3l1.5-0.4v1.2c-2.7,6-6.8,10.3-10.8,14.4c0.3,10.4,2.1,17.7,5.7,26.4
		c0.5,1.2-0.5,2.8-1.9,2.8H-277c-1.2,0-2.2-1.2-2-2.3c0.9-5.4,1.1-9.6,0-14.4c-5.2,0.2-10.5,1.6-15.5,0.7c-0.7-0.1-1.3-0.7-1.5-1.3
		c-1.1-4-2.1-7.6-2.1-11.4l-0.9-0.5c-0.6-0.3-1.1-1-1.1-1.7c-0.2-3.1-0.1-4.3,0-6.2c-1.6-0.1-3.5-0.4-4.4-1.5
		c-0.5-0.5-0.7-1.2-0.5-1.9c1.1-4.6,4.9-9.9,8-14.1c-1.4-11.8,1.5-20.9,7.9-26.7C-281.4,1260.6-269.6,1258.5-260.9,1258.4
		L-260.9,1258.4z M-239.8,1261c-1.1,0-2,0.9-2,2s0.9,2,2,2s2-0.9,2-2C-237.8,1261.9-238.6,1261-239.8,1261z M-255.1,1277.4l-1.6,2.6
		c-0.4,0.6-1,1-1.7,1c-1,0-2,0.2-3,0.4c-0.7,0.2-1.4,0-1.9-0.5l-2.1-2.1l-1.8,1l0.7,2.9c0.2,0.7,0,1.4-0.5,1.9
		c-0.7,0.7-1.3,1.4-1.9,2.4c-0.4,0.6-1,0.9-1.7,0.9l-3,0l-0.5,2l2.6,1.5c0.6,0.3,1,1,1,1.7c0,1,0.1,2,0.4,2.9c0.2,0.7,0,1.4-0.5,1.9
		l-2.1,2.2l1,1.7l2.9-0.7c0.7-0.2,1.4,0,1.9,0.5c0.7,0.7,1.5,1.3,2.4,1.8c0.6,0.3,1,1,1,1.7l0,3l1.9,0.5l1.5-2.6c0.3-0.6,1-1,1.7-1
		c1.1,0,2-0.1,2.9-0.3c0.7-0.2,1.4,0,1.9,0.5l2.2,2.1l1.8-1l-0.8-2.9c-0.2-0.7,0-1.4,0.5-1.9c0.7-0.7,1.3-1.5,1.8-2.3
		c0.3-0.6,1-1,1.7-1l3-0.1l0.5-1.9l-2.6-1.6c-0.6-0.4-1-1-1-1.7c0-1-0.1-2-0.4-3c-0.2-0.6,0-1.4,0.5-1.8l2.1-2.2l-1-1.7l-2.9,0.7
		c-0.7,0.2-1.4,0-1.9-0.5c-0.7-0.7-1.5-1.3-2.4-1.8c-0.6-0.3-0.9-1-0.9-1.6l-0.1-3C-253.8,1277.7-254.5,1277.6-255.1,1277.4z
		 M-221.2,1282.3l-0.9,1.5c-0.4,0.6-1,1-1.7,1c-0.7,0-1.3,0.1-2,0.3c-0.7,0.2-1.4,0-1.9-0.5l-1.3-1.2l-0.5,0.3l0.4,1.7
		c0.2,0.7,0,1.4-0.5,1.9c-0.4,0.4-0.8,1-1.3,1.6c-0.4,0.6-1,0.9-1.7,0.9l-1.8,0l-0.2,0.6l1.5,0.9c0.6,0.4,1,1,1,1.7
		c0,0.7,0.1,1.4,0.3,2c0.2,0.7,0,1.4-0.5,1.9l-1.3,1.3l0.3,0.5l1.7-0.4c0.7-0.2,1.4,0,1.9,0.5c0.5,0.5,1,0.9,1.6,1.2
		c0.6,0.4,1,1,1,1.7l0,1.7l0.6,0.2l0.9-1.5c0.4-0.6,1-1,1.7-1c0.7,0,1.4-0.1,2-0.2c0.7-0.2,1.4,0,1.9,0.5l1.3,1.2l0.5-0.3l-0.4-1.7
		c-0.2-0.7,0-1.4,0.5-1.9c0.5-0.5,0.9-1,1.2-1.6c0.3-0.6,1-1,1.7-1l1.8,0l0.2-0.6l-1.5-0.9c-0.6-0.3-1-1-1-1.7c0-0.7-0.1-1.3-0.3-2
		c-0.2-0.6,0-1.4,0.5-1.8l1.2-1.3l-0.3-0.5l-1.7,0.4c-0.7,0.2-1.4,0-1.9-0.5c-0.4-0.4-1-0.9-1.6-1.2c-0.6-0.4-0.9-1-0.9-1.7l0-1.7
		C-220.8,1282.4-221,1282.4-221.2,1282.3L-221.2,1282.3z M-258.3,1283c5.5,0,10,4.5,10,10c0,5.5-4.5,10-10,10s-10-4.5-10-10
		S-263.8,1283-258.3,1283L-258.3,1283z M-223.7,1287c3.3,0,6,2.7,6,6c0,3.3-2.7,6-6,6c-3.3,0-6-2.7-6-6
		C-229.7,1289.7-227,1287-223.7,1287z M-258.3,1287c-3.3,0-6,2.7-6,6s2.7,6,6,6s6-2.7,6-6C-252.3,1289.7-255,1287-258.3,1287z
		 M-223.7,1291c-1.1,0-2,0.9-2,2s0.9,2,2,2s2-0.9,2-2C-221.7,1291.9-222.6,1291-223.7,1291z"/>
</g>
</svg>
