<?xml version="1.0" encoding="utf-8"?>
<!-- Generator: Adobe Illustrator 19.0.0, SVG Export Plug-In . SVG Version: 6.00 Build 0)  -->
<svg version="1.1" id="Calque_1" xmlns="http://www.w3.org/2000/svg" xmlns:xlink="http://www.w3.org/1999/xlink" x="0px" y="0px"
	 viewBox="-328 330 62 62" style="enable-background:new -328 330 62 62;" xml:space="preserve">
<title>noun_escrow account_2261136</title>
<desc>Created with Sketch.</desc>
<g id="Page-1">
	<g id="noun_escrow-account_2261136">
		<g id="Group">
			<path id="Shape" d="M-266,356v-8h-6v-18h-40.4l-9.6,10.6v7.4h-6v8h6v3.4l-3.8-1.4h-2.2v22h8.7l0.5-1.7l4.2,2.5l2.8,0.7
				c-0.2,0.4-0.3,0.8-0.3,1.3c0,1.7,1.3,3.1,3,3.1c0.1,1.7,1.4,3,3.1,3c0.4,0,0.7-0.1,1-0.2c0.4,1.3,1.6,2.2,3,2.2
				c0.7,0,1.3-0.2,1.8-0.6l0.7,0.7c0.6,0.6,1.3,0.9,2.1,0.9h0.2c1.3,0,2.4-0.8,2.8-2c0.6,0.6,1.4,1,2.2,1c1.4,0,2.5-1,2.9-2.2
				c0.4,0.1,0.7,0.2,1.1,0.2c1.4,0,2.5-1,2.9-2.2c0.4,0.1,0.7,0.2,1.1,0.2c1.7,0,3-1.3,3-3v-0.3c0-0.6-0.2-1.3-0.6-1.8l-0.3-0.4
				l3.7-3l0.5,1.5h11.7v-22h-2l-4,1.1V356H-266z M-312,332.5v7.5h-6.8L-312,332.5z M-320,342h10v-10h36v16h-6v-3.9l-11.8,7.9
				l11.8,7.9V356h6v3.7l-9.3,2.6l0.9,2.8l-12.5,0.8c-0.9,0.1-1.8,0.3-2.7,0.7l-2.1,1.1c-1-0.5-2-0.7-3.1-0.7h-7l-4.7-2.4l0.7-2.3
				l-6.2-2.3V356h6v3.9l11.8-7.9l-11.8-7.9v3.9h-6V342z M-326,354v-4h4h2h8v-2.1l6.2,4.1l-6.2,4.1V354H-326z M-320.7,378h-5.3v-17.9
				l9.8,3.5L-320.7,378z M-313.6,379.1l-4.5-2.7l3.1-9.8l4.8,2.4h7.5c0.9,0,1.9,0.3,2.6,0.8l5.4,3.4c0.4,0.2,0.6,0.7,0.6,1.1v0.3
				c0,0.7-0.6,1.3-1.4,1.3c-0.2,0-0.5-0.1-0.7-0.2l-3.8-2.3c-1.5-0.9-3.5-0.6-4.8,0.6l-5.8,5.8L-313.6,379.1z M-296,389
				c0,0.6-0.4,1-1,1h-0.2c-0.3,0-0.5-0.1-0.7-0.3l-0.8-0.8c-0.2-0.2-0.3-0.4-0.3-0.7V388c0-0.6,0.4-1,1-1h0.2c0.3,0,0.5,0.1,0.7,0.3
				l0.8,0.8c0.2,0.2,0.3,0.4,0.3,0.7V389z M-291,388c0,0.6-0.4,1-1,1c-0.3,0-0.6-0.1-0.8-0.4l-2-2.7c-0.1-0.2-0.2-0.4-0.2-0.6V385
				c0-0.6,0.4-1,1-1c0.3,0,0.6,0.1,0.8,0.4l2,2.7c0.1,0.2,0.2,0.4,0.2,0.6V388z M-287,386c0,0.6-0.4,1-1,1c-0.3,0-0.6-0.1-0.8-0.4
				l-2-2.7c-0.1-0.2-0.2-0.4-0.2-0.6V383c0-0.6,0.4-1,1-1c0.3,0,0.6,0.1,0.8,0.4l2,2.7c0.1,0.2,0.2,0.4,0.2,0.6V386z M-283,384
				c0,0.6-0.4,1-1,1c-0.3,0-0.6-0.1-0.8-0.4l-2-2.7c-0.1-0.2-0.2-0.4-0.2-0.6V381c0-0.6,0.4-1,1-1c0.3,0,0.6,0.1,0.8,0.4l2,2.7
				c0.1,0.2,0.2,0.4,0.2,0.6V384z M-283.1,379.8l-0.5-0.6c-0.6-0.8-1.5-1.2-2.4-1.2c-1.4,0-2.5,1-2.9,2.2c-0.4-0.1-0.7-0.2-1.1-0.2
				c-1.4,0-2.5,1-2.9,2.2c-0.4-0.1-0.7-0.2-1.1-0.2c-1.7,0-3,1.3-3,3v0.1c-0.3-0.1-0.5-0.1-0.8-0.1h-0.2c-1.7,0-3,1.3-3,3v0.2
				c0,0.1,0,0.3,0,0.4l-0.1,0.1c-0.2,0.2-0.5,0.3-0.8,0.3c-0.6,0-1.1-0.5-1.1-1.1c0-0.3,0.1-0.6,0.3-0.8l4.4-4.4l-1.4-1.4l-4.4,4.4
				l-1,1c-0.2,0.2-0.5,0.3-0.8,0.3c-0.6,0-1.1-0.5-1.1-1.1c0-0.3,0.1-0.6,0.3-0.8l4.4-4.4l1-1l-1.4-1.4l-1,1l-4.4,4.4
				c-0.2,0.2-0.5,0.3-0.8,0.3c-0.6,0-1.1-0.5-1.1-1.1c0-0.3,0.1-0.6,0.3-0.8l6.5-6.5c0.6-0.6,1.6-0.7,2.3-0.3l3.8,2.3
				c0.5,0.3,1.1,0.5,1.7,0.5c1.8,0,3.4-1.5,3.4-3.3v-0.3c0-1.2-0.6-2.2-1.6-2.8l-4.1-2.5l1-0.5c0.6-0.3,1.2-0.5,1.9-0.5l12.9-0.9
				l2.9,9.4L-283.1,379.8z M-268,360v18h-8.3l-4.5-14.3L-268,360z M-294.6,346c0.5,0,1.1,0.1,1.6,0.2s1.1,0.4,1.8,0.8l-0.8,2
				c-0.7-0.6-1.5-0.8-2.5-0.8c-0.7,0-1.2,0.2-1.7,0.5c-0.5,0.3-0.9,0.8-1.1,1.4h4.9l-0.6,1.4h-4.6l0,0.5l0,0.6h4.1l-0.5,1.4h-3.3
				c0.3,0.6,0.6,1,1.1,1.4c0.5,0.3,1.1,0.5,1.7,0.5c0.9,0,1.7-0.3,2.4-0.8l1.1,2c-0.6,0.3-1.1,0.6-1.7,0.7s-1.2,0.2-2,0.2
				c-1.3,0-2.4-0.4-3.4-1.1c-1-0.7-1.7-1.7-2-2.9h-2l0.6-1.4h1.2l0-0.6l0-0.5h-1.7l0.6-1.4h1.4c0.4-1.3,1-2.3,2-3
				S-295.9,346-294.6,346z M-282,347.9v2.1h14v4h-14v2.1l-6.2-4.1L-282,347.9z"/>
			<rect id="Rectangle" x="-308" y="334" width="32" height="2"/>
			<rect id="Rectangle_1_" x="-308" y="338" width="32" height="2"/>
		</g>
	</g>
</g>
</svg>
