<?xml version="1.0" encoding="utf-8"?>
<!-- Generator: Adobe Illustrator 19.0.0, SVG Export Plug-In . SVG Version: 6.00 Build 0)  -->
<svg version="1.1" id="Calque_1" xmlns="http://www.w3.org/2000/svg" xmlns:xlink="http://www.w3.org/1999/xlink" x="0px" y="0px"
	 viewBox="-307.8 313.8 97.9 68.5" style="enable-background:new -307.8 313.8 97.9 68.5;" xml:space="preserve">
<path d="M-293.4,319.2c2.5,0,4.5,2,4.5,4.5c0,2.5-2,4.5-4.5,4.5c-2.5,0-4.5-2-4.5-4.5C-297.9,321.2-295.9,319.2-293.4,319.2z"/>
<path d="M-293.8,366.3c-3.3,0-6.5-1.2-9-3.3c-2.9-2.4-4.6-5.8-4.9-9.5c-0.4-5,1.9-9.9,6.1-12.7c0.8-0.5,1.9-0.3,2.4,0.5
	c0.5,0.8,0.3,1.9-0.5,2.4c-3.1,2.1-4.9,5.8-4.6,9.6c0.2,2.8,1.5,5.3,3.7,7.2c2.1,1.8,4.9,2.7,7.7,2.5c4.5-0.4,8.3-3.6,9.4-8
	c0.2-0.9,1.2-1.5,2.1-1.3c0.9,0.2,1.5,1.2,1.3,2.1c-1.4,5.9-6.4,10.2-12.4,10.7C-293.1,366.3-293.5,366.3-293.8,366.3L-293.8,366.3z
	"/>
<path d="M-269.3,358.2l-7.2-12.2c-0.5-0.9-1.2-1.3-2.2-1.3h-9.4l-0.1-2.4h6.6c1.3,0,2.3-1,2.3-2.3c0-1.3-1-2.3-2.3-2.3h-6.9
	l-0.2-4.3c-0.1-1.2-0.6-2.2-1.5-3c-0.9-0.8-2-1.2-3.2-1.2c-1.2,0.1-2.2,0.6-3,1.5c-0.8,0.9-1.2,2-1.1,3.2l0.8,13.7
	c0.1,1.2,0.6,2.1,1.5,2.9c0.9,0.8,1.9,1.2,3.1,1.2h12.7l5.5,9.2c0.5,0.9,1.3,1.3,2.3,1.3c0.7,0,1.3-0.2,1.9-0.7
	c0.5-0.5,0.8-1.1,0.8-1.8C-268.9,359.1-269.1,358.6-269.3,358.2z"/>
<path d="M-212.6,323.7c-0.3-2.7-2.5-5-6.6-6.6c-5.2-2.1-11.2-3.2-18-3.2c-6.8,0-12.8,1.1-18,3.2c-4.1,1.7-6.3,3.9-6.6,6.6l-2.6,20.9
	v24.3h-41.3v3.7l45.9,0v5.6c0,2.7,1.3,4,3.9,4c2.6,0,3.9-1.3,3.9-4v-5.6h29.6v5.6c0,2.7,1.3,4,3.9,4c2.6,0,3.9-1.3,3.9-4v-5.6h4.6
	v-28.1L-212.6,323.7z M-247.2,318.8h20.1c1,0,1.5,0.6,1.5,1.8c0,1.3-0.5,1.9-1.5,1.9h-20.1c-1,0-1.5-0.6-1.5-1.9
	C-248.6,319.4-248.1,318.8-247.2,318.8z M-259.5,343.9l2.1-16.6c0.2-1.2,0.9-1.8,2.2-1.8h36.3c1.2,0,2,0.6,2.1,1.8l2.1,16.6l0.1,0.6
	c0,1.4-0.8,2.1-2.2,2.1h-40.6c-1.5,0-2.2-0.7-2.2-2.1L-259.5,343.9z M-252.9,363c-0.8,0.8-1.8,1.2-3,1.2c-1.1,0-2.1-0.4-2.9-1.2
	c-0.8-0.8-1.2-1.8-1.2-2.9c0-1.1,0.4-2.1,1.2-2.9c0.8-0.8,1.8-1.2,2.9-1.2c1.2,0,2.2,0.4,3,1.2c0.8,0.8,1.2,1.8,1.2,2.9
	C-251.7,361.2-252.1,362.2-252.9,363z M-215.5,363c-0.8,0.8-1.8,1.2-2.9,1.2c-1.1,0-2.1-0.4-2.9-1.2c-0.8-0.8-1.2-1.8-1.2-2.9
	c0-1.1,0.4-2.1,1.2-2.9c0.8-0.8,1.8-1.2,2.9-1.2c1.1,0,2.1,0.4,2.9,1.2c0.8,0.8,1.2,1.8,1.2,2.9C-214.3,361.2-214.7,362.2-215.5,363
	z"/>
</svg>
